<svg width="189" height="239" viewBox="0 0 189 239" fill="none" xmlns="http://www.w3.org/2000/svg">
<path d="M49.2442 177.661C53.5401 164.455 60.4149 153.123 69.9734 143.009C72.6975 140.127 75.7235 137.302 78.974 135.02C80.0875 134.239 81.2408 133.527 82.4248 132.858C82.8923 132.593 83.6982 132.372 84.0138 131.92C84.646 131.015 84.1502 128.328 84.1502 127.227C78.3434 126.489 73.0983 124.188 68.3562 120.8C66.6431 119.575 65.2147 117.643 63.4455 116.59C62.3488 115.937 60.4516 116.022 59.1984 115.679C56.4483 114.925 53.8512 113.69 51.6332 111.882C44.9853 106.463 42.0136 95.2517 44.2997 87.0121C45.2852 83.4602 47.3397 80.7015 49.377 77.7215C47.6532 77.7215 46.043 77.6757 44.4662 76.8756C40.1645 74.693 38.5783 69.5847 40.7847 65.3784C41.8862 63.2785 44.0302 61.6946 46.3243 61.1625C47.1838 60.9632 48.1001 60.9519 48.9788 61.0104C49.3354 61.0341 49.8641 61.2248 50.0749 60.8231C50.3964 60.2102 50.3341 59.1617 50.4495 58.4768C50.6978 57.0035 51.0508 55.5446 51.4175 54.097C52.3909 50.2538 54.0704 46.481 56.0933 43.081C59.947 36.6039 65.517 30.9633 72.0725 27.2111C73.9524 26.135 75.8998 25.1697 77.9123 24.3672C78.9006 23.973 80.3282 23.7505 81.1881 23.1358C81.714 22.7598 81.4048 21.843 81.327 21.3146C81.1411 20.0529 80.6031 18.11 81.7858 17.1741C83.1547 16.0907 85.9196 15.9204 87.601 15.6403C92.3864 14.8431 97.4303 14.852 102.2 15.7663C103.689 16.0518 105.821 16.2213 107.105 17.0667C108.456 17.9557 107.933 19.9991 107.739 21.3146C107.672 21.7699 107.33 22.6604 107.723 23.0286C108.267 23.5387 109.469 23.7219 110.164 23.9761C111.743 24.5536 113.313 25.2272 114.809 25.9943C119.375 28.3346 123.576 31.4816 127.044 35.2556C133.521 42.3035 138.202 51.4704 138.965 61.1313C140.86 60.9816 142.63 60.8927 144.406 61.7271C149.737 64.2313 150.924 71.4028 146.66 75.4533C144.709 77.3073 142.337 77.7215 139.761 77.7215C140.207 78.6843 141.079 79.4755 141.66 80.376C142.856 82.2322 143.878 84.2337 144.535 86.3485C147.148 94.7474 144.301 106.559 137.239 112.04C135.201 113.623 132.843 114.901 130.338 115.563C129.015 115.912 126.731 115.871 125.616 116.601C124.028 117.64 122.735 119.326 121.18 120.473C116.462 123.952 110.788 126.758 104.855 127.227C104.855 128.374 104.383 130.854 104.991 131.836C105.318 132.363 106.315 132.683 106.846 132.975C108.085 133.655 109.279 134.425 110.429 135.247C113.932 137.75 116.986 140.877 119.983 143.95C126 150.118 131.406 157.675 135.144 165.451C137.052 169.42 138.122 173.666 139.894 177.661C141.978 177.002 144.078 175.447 145.866 174.214C148.64 172.302 151.38 170.471 153.962 168.296C165.477 158.599 174.739 147.145 180.886 133.332C196.532 98.1765 189.27 54.8864 161.525 27.6905C150.292 16.6798 136.909 8.88141 121.976 4.09456C112.234 0.971897 101.534 -0.363201 91.3172 0.084218C76.2879 0.742386 61.4995 4.65068 48.3152 12.0057C40.7913 16.2029 33.5332 21.5341 27.5157 27.7078C21.474 33.9061 15.9448 40.894 11.8033 48.5226C-2.37784 74.6442 -3.99592 105.977 8.11874 133.199C14.2492 146.975 23.4293 158.441 34.9102 168.145C37.5336 170.362 40.3305 172.211 43.139 174.173C44.9326 175.427 47.1257 177.05 49.2442 177.661ZM92.1135 18.3183C90.1617 18.5745 88.2002 18.6311 86.2738 19.0741C85.7807 19.1874 84.7366 19.2154 84.4213 19.664C84.1154 20.0994 84.4682 21.0903 84.5278 21.58C84.7491 23.3993 85.1049 25.1954 85.3241 27.0216C86.2227 34.5072 87.4509 42.0009 88.6064 49.4517C88.9353 51.5719 89.2747 53.695 89.5544 55.8224C89.6962 56.9007 89.5731 58.1345 90.0131 59.1404C90.8002 60.9397 92.8044 62.0908 94.768 61.904C98.854 61.5155 99.108 58.6283 99.6019 55.2915C100.008 52.5498 100.372 49.8019 100.797 47.0627C101.838 40.3483 102.644 33.5916 103.76 26.8889C104.058 25.1007 104.403 23.2491 104.579 21.4473C104.628 20.9536 104.898 20.0969 104.586 19.6574C104.141 19.0307 102.255 18.9507 101.537 18.826C98.556 18.3084 95.1301 17.9223 92.1135 18.3183ZM53.0932 65.5111H112.553H129.143H133.788C134.34 65.5111 135.232 65.6794 135.737 65.431C136.403 65.1032 135.919 62.9565 135.911 62.3258C135.871 58.9161 134.917 55.1544 133.732 51.9734C130.28 42.7116 123.983 34.7626 115.34 29.8288C112.865 28.4161 109.836 26.6533 106.978 26.2253C106.876 28.6156 106.266 31.0203 105.954 33.3923C105.243 38.7983 104.42 44.1959 103.584 49.5844C103.235 51.8363 102.92 54.0951 102.616 56.3532C102.443 57.6406 102.508 58.8297 102.008 60.0695C99.9704 65.1136 93.2794 66.7517 89.1937 63.0991C86.1006 60.3339 86.399 55.9041 85.8396 52.1061C84.5719 43.5006 83.6369 34.7715 82.0267 26.2253C78.3439 27.0772 74.6632 29.103 71.5416 31.1803C60.0854 38.8037 53.0932 51.7774 53.0932 65.5111ZM47.5188 64.1094C42.4647 64.903 41.0137 72.1461 46.0589 74.2077C48.1084 75.0451 51.0422 74.5362 53.2259 74.5362H68.489H121.18H137.505C139.912 74.5362 142.628 74.9963 144.537 73.1966C147.853 70.0706 145.674 64.2049 141.088 64.0569C140.578 64.0404 139.585 64.0532 139.254 64.5175C138.365 65.7648 139.751 68.2989 137.239 68.5498C134.942 68.7792 132.515 68.5637 130.205 68.5637H116.402H74.196H58.933C56.6128 68.5637 53.9137 68.9491 51.6332 68.5334C49.3164 68.111 50.6183 65.7056 49.7714 64.5175C49.3748 63.9612 48.1056 64.0173 47.5188 64.1094ZM58.0039 77.5888C58.0039 81.214 57.9486 84.8653 58.2919 88.472C58.559 91.2793 58.7405 94.1147 59.5594 96.8335C59.9263 98.0516 60.4062 99.2148 61.1023 100.284C63.2477 103.581 67.244 104.797 71.0107 104.797C77.0979 104.797 82.4159 102.9 88.1319 101.037C90.2268 100.354 92.4275 99.886 94.6353 99.8862C96.9368 99.8863 99.2272 100.453 101.404 101.17C107.046 103.027 112.249 104.797 118.26 104.797C122.157 104.797 126.166 103.382 128.212 99.8862C128.896 98.7186 129.363 97.4791 129.691 96.1699C130.257 93.9062 130.673 91.4711 130.734 89.1357C130.834 85.2855 131.001 81.4535 131.001 77.5888H127.949C127.949 80.9558 127.901 84.3208 127.671 87.6757C127.501 90.1645 127.244 92.6743 126.667 95.1082C125.38 100.54 121.039 101.845 116.004 101.617C108.169 101.261 101.083 95.9708 93.1753 96.7234C86.2194 97.3854 80.0511 101.297 73.0015 101.617C70.3523 101.737 67.2053 101.664 65.0401 99.8735C63.0521 98.2294 62.3798 95.5614 61.9749 93.1173C61.1277 88.0028 61.1892 82.7603 61.1892 77.5888H58.0039ZM52.9605 78.6506C46.2398 83.9849 45.7537 93.0214 47.9556 100.682C49.6619 106.619 54.2067 112.024 60.6584 112.893C59.7861 110.869 58.6461 109.021 57.9169 106.92C56.0748 101.615 55.2103 95.8752 54.4377 90.3302C54.071 87.6985 53.6756 85.0174 53.4946 82.3668C53.4261 81.3637 53.566 79.4499 52.9605 78.6506ZM135.912 78.6506C135.422 81.2913 135.415 84.0736 135.095 86.7467C134.016 95.7584 132.646 104.815 128.347 112.893C139.425 111.988 144.192 97.1958 141.868 87.9412C141.073 84.7783 139.014 80.1265 135.912 78.6506ZM74.8596 83.63C70.5418 84.5512 69.6301 90.5978 71.1848 94.0464C72.1365 96.1575 74.0211 97.761 76.4523 97.3024C80.8799 96.4671 81.5171 89.9137 79.8672 86.6139C78.9373 84.7541 77.0752 83.1574 74.8596 83.63ZM112.686 83.63C108.352 84.5546 107.557 90.7657 109.089 94.1791C110.01 96.2304 112.074 97.8305 114.411 97.2942C118.707 96.3082 119.341 90.0959 117.82 86.7467C116.936 84.8002 114.937 83.1498 112.686 83.63ZM88.2646 108.466C85.7251 108.681 87.3404 111.599 88.1935 112.627C89.9392 114.73 92.7577 115.732 95.4316 115.535C97.7706 115.364 100.194 113.761 101.444 111.831C102.082 110.846 102.722 109.257 101.269 108.6C99.6446 107.866 99.0445 109.861 98.1943 110.757C97.1364 111.873 95.5023 112.505 93.9717 112.339C92.6481 112.195 91.4025 111.374 90.5641 110.371C89.8999 109.577 89.5247 108.359 88.2646 108.466ZM84.8138 135.194C83.9739 135.254 80.8909 136.946 80.8797 137.857C80.8588 139.557 82.5935 141.918 83.3196 143.419C85.2715 147.453 87.2668 151.428 89.6482 155.231C90.3721 156.388 91.329 158.513 92.5237 159.215C93.2964 159.668 94.5758 159.544 95.4316 159.468C97.3078 159.302 98.1088 157.188 99.0594 155.762C101.741 151.74 103.85 147.363 105.951 143.021C106.59 141.7 107.219 140.39 107.795 139.039C107.983 138.598 108.379 137.952 108.08 137.486C107.584 136.713 105.122 135.185 104.191 135.198C103.421 135.208 102.446 135.873 101.67 136.07C99.3885 136.647 96.8674 137.22 94.5025 137.174C92.2571 137.131 89.9075 136.725 87.7337 136.168C86.8781 135.949 85.6665 135.133 84.8138 135.194ZM77.3814 140.234C73.7343 143.204 70.4067 146.801 67.4533 150.453C66.4165 151.735 64.8853 153.174 64.2336 154.7C63.5447 156.313 63.5018 158.789 63.2922 160.54C62.8056 164.607 62.4823 168.791 62.3818 172.883C62.3216 175.336 62.2742 177.866 62.1064 180.316C62.0514 181.119 61.6316 182.723 62.122 183.435C62.7018 184.277 65.0243 184.622 65.9672 184.916C69.6414 186.063 73.6596 187.442 77.5141 187.748V154.17V144.481L77.3814 140.234ZM111.491 140.234V187.748C115.378 187.441 119.326 186.042 123.038 184.924C123.984 184.639 126.312 184.305 126.883 183.446C127.319 182.79 127.02 181.216 127.02 180.449C127.02 177.712 126.82 174.948 126.633 172.22C126.339 167.924 126.211 163.618 125.596 159.346C125.399 157.983 125.411 156.094 124.915 154.833C124.481 153.727 123.396 152.706 122.668 151.781C120.827 149.443 118.876 147.245 116.793 145.122C115.235 143.534 113.549 141.177 111.491 140.234ZM108.306 145.277C106.373 149.92 103.68 154.555 100.818 158.682C99.9466 159.939 98.9288 162.235 97.4224 162.811C96.8196 163.041 96.1794 162.856 95.5643 162.808C94.3399 162.712 92.3782 163.33 91.3291 162.644C89.8082 161.651 88.8055 159.496 87.8222 158.019C85.1921 154.066 82.6611 149.803 80.8321 145.41H80.6994V177.131V185.227C80.6994 185.917 80.3879 187.627 80.8358 188.181C81.127 188.541 81.882 188.407 82.2921 188.47C83.619 188.677 84.9313 188.873 86.2738 188.948C91.6696 189.248 97.0706 189.626 102.466 188.981C103.933 188.805 105.384 188.66 106.846 188.452C107.261 188.393 108.004 188.549 108.302 188.181C108.72 187.664 108.438 186.133 108.438 185.492V178.06V154.966V148.33C108.438 147.407 108.664 146.131 108.306 145.277ZM59.9947 160.939C56.3251 166.484 53.839 172.884 52.0314 179.254C54.0024 180.405 56.6775 181.906 58.933 182.307L59.4864 168.371L59.8739 163.328L59.9947 160.939ZM129.01 160.939L130.205 182.307L135.248 180.169L136.825 179.202L136.663 177.927L135.558 174.609L131.566 165.318L129.01 160.939ZM27.8759 201.082C26.4599 201.331 25.0724 201.865 23.8943 202.692C22.7649 203.484 21.7451 204.475 21.0345 205.666C16.7774 212.802 23.0295 221.823 31.194 220.387C32.541 220.15 33.7807 219.612 34.9102 218.849C43.2613 213.209 37.9262 199.319 27.8759 201.082ZM53.2259 210.178C53.8225 209.556 54.4987 209.122 54.9011 208.32C55.1883 207.748 55.3346 207.1 55.3474 206.462C55.4456 201.567 49.9206 201.419 46.3243 201.419H43.0063C42.6488 201.419 42.0607 201.316 41.7591 201.555C41.3036 201.916 41.5463 203.285 41.5463 203.808V210.178V217.345C41.5463 217.97 41.2796 219.411 41.6827 219.92C42.0882 220.432 43.8655 220.133 44.4662 220.133C47.1221 220.133 50.3124 220.581 52.8277 219.574C56.3792 218.152 58.1608 211.058 53.2259 210.178ZM64.9055 201.419V209.913C64.9055 211.37 65.1057 212.997 64.7967 214.425C64.2417 216.992 61.67 217.599 59.862 215.885H59.7293C59.2626 216.493 57.8479 218 57.9881 218.8C58.1086 219.487 59.2974 219.91 59.862 220.124C62.025 220.942 64.7878 220.536 66.4962 218.926C67.9026 217.6 68.1765 215.848 68.3941 214.027C68.885 209.923 68.489 205.555 68.489 201.419H64.9055ZM82.823 220.133V216.549H74.8596V212.567H81.4958V208.984H74.8596V205.002H82.823V201.419H74.4615C73.761 201.419 72.0549 201.107 71.4889 201.555C70.8984 202.023 71.2761 204.421 71.2761 205.135V216.018C71.2761 216.788 70.8604 219.498 71.4889 219.996C72.0549 220.444 73.761 220.133 74.4615 220.133H82.823ZM84.8138 205.002H89.7245V220.133H93.308V205.002H98.2188V201.419H88.2646C87.588 201.419 85.3976 201.067 84.9502 201.632C84.4559 202.256 84.8138 204.221 84.8138 205.002ZM100.608 201.419V220.133H104.191V201.419H100.608ZM105.784 201.419C106.069 203.072 107.045 204.77 107.669 206.329C109.016 209.698 110.409 213.048 111.756 216.416C112.547 218.392 112.884 220.85 115.591 220.09C116.089 219.951 116.24 219.363 116.422 218.938C116.889 217.842 117.313 216.726 117.755 215.62C119.032 212.429 120.354 209.255 121.631 206.064C122.239 204.545 123.058 203.013 123.436 201.419C122.526 201.419 120.286 201.007 119.547 201.555C118.84 202.08 118.472 203.927 118.154 204.737C117.006 207.659 115.4 210.709 114.676 213.762C113.128 211.041 112.255 207.775 111.093 204.869C110.761 204.039 110.397 202.092 109.673 201.555C108.934 201.007 106.694 201.419 105.784 201.419ZM123.303 220.133C124.151 220.133 126.675 220.557 127.275 219.92C128.015 219.134 127.839 217.095 128.906 216.629C129.475 216.381 130.39 216.549 131.001 216.549C132.589 216.549 134.193 216.482 135.779 216.552C137.345 216.62 136.986 219.045 137.879 219.92C138.531 220.56 140.998 220.132 141.884 220.132C140.574 215.342 137.972 210.678 136.124 206.064C135.661 204.908 135.155 203.769 134.691 202.613C134.523 202.196 134.392 201.601 133.903 201.461C133.279 201.282 131.309 201.184 130.878 201.726C129.591 203.348 128.932 206.26 128.161 208.187C126.609 212.065 124.266 216.07 123.303 220.133ZM28.5395 204.642C36.4772 203.608 38.2342 215.871 30.2649 216.909C29.3874 217.023 28.4611 216.954 27.6105 216.715C21.3268 214.952 22.1241 205.478 28.5395 204.642ZM45.1298 208.586V205.002C46.7529 205.002 50.7067 204.313 51.6095 206.066C52.08 206.98 51.4383 207.935 50.5714 208.267C48.94 208.892 46.843 208.586 45.1298 208.586ZM132.594 206.462L135.116 212.966H130.072C130.536 210.961 131.455 208.177 132.594 206.462ZM45.1298 216.549V211.638C47.1004 211.638 49.6853 211.229 51.4986 212.169C52.7057 212.795 53.1197 214.564 52.1277 215.576C50.5891 217.146 47.1101 216.549 45.1298 216.549ZM165.509 224.645C163.853 225.432 161.316 227.108 160.154 228.534C159.526 229.304 159.593 230.577 160.479 231.137C161.479 231.767 162.434 231.125 163.253 230.541C165.268 229.103 167.524 227.734 169.352 226.065C170.025 225.451 170.367 224.559 169.877 223.718C169.398 222.895 168.371 222.341 167.633 221.771C166.001 220.515 164.216 218.633 162.324 217.814C160.846 217.175 159.288 218.612 160.037 220.127C160.377 220.815 161.2 221.288 161.793 221.741C163.04 222.692 164.325 223.614 165.509 224.645ZM18.7181 222.389V225.84L141.752 225.972C141.84 225.273 142.297 223.021 141.672 222.525C141.241 222.184 140.15 222.389 139.628 222.389H134.319H113.349H18.7181ZM145.335 222.522C145.335 223.235 144.938 225.358 145.341 225.892C145.766 226.457 147.988 226.105 148.653 226.105L148.786 222.654L145.335 222.522ZM152.237 222.654L152.104 226.105L155.555 226.238C155.611 225.52 156.119 223.301 155.475 222.791C154.869 222.311 152.993 222.654 152.237 222.654ZM159.138 222.787C159.138 223.481 158.742 225.506 159.142 226.025C159.58 226.591 161.782 226.238 162.456 226.238L162.589 222.787H159.138ZM150.113 228.19C148.39 228.413 148.801 231.07 150.511 230.764C152.101 230.48 151.706 227.983 150.113 228.19ZM152.9 238.581H155.156V228.759L153.037 228.972L152.9 231.547V238.581ZM78.3102 235.528L77.3812 237.386C78.6298 238.156 79.8354 238.869 81.3629 238.839C83.5274 238.797 85.8789 237.16 84.9267 234.732C84.115 232.662 81.6698 233.456 80.3233 232.275C79.6355 231.671 80.5234 231.177 81.0974 231.08C82.1399 230.904 82.9827 231.571 83.8846 231.945C84.1002 231.483 84.7046 230.779 84.5726 230.244C84.4075 229.575 83.2521 229.34 82.6901 229.214C80.9548 228.825 78.6381 229.118 77.9061 231.016C77.0559 233.22 78.9212 234.48 80.832 234.909C81.3631 235.028 83.1634 235.227 82.694 236.178C81.8482 237.89 79.2412 236.003 78.3102 235.528ZM86.2736 229.29V238.581H88.3971V229.29H86.2736ZM89.9898 229.29V238.581H92.2461V235.528C93.3758 235.528 94.8117 235.772 95.8295 235.192C97.5939 234.187 97.9012 231.161 96.2224 229.927C94.6371 228.763 91.8494 229.29 89.9898 229.29ZM97.555 238.581H100.077C100.183 238.131 100.308 237.52 100.674 237.201C101.16 236.778 103.601 236.77 104.135 237.125C104.618 237.445 104.497 238.243 105.04 238.501C105.613 238.774 106.617 238.581 107.244 238.581C106.719 236.367 105.525 234.174 104.646 232.078C104.325 231.314 104.093 230.111 103.518 229.503C103.182 229.149 101.986 229.184 101.566 229.37C100.916 229.659 100.642 231.069 100.379 231.679C99.4052 233.946 98.3497 236.246 97.555 238.581ZM107.509 229.29V231.281H110.031V238.581H112.154V231.281H114.676V229.29H107.509ZM118.525 229.29V238.581C120.4 238.581 123.256 239.119 124.895 238.054C126.446 237.047 126.554 234.422 124.63 233.803V233.538C126.142 232.763 125.88 230.502 124.498 229.744C122.853 228.842 120.338 229.29 118.525 229.29ZM92.2461 233.538V231.281C92.9192 231.281 93.8851 231.108 94.4951 231.438C95.3355 231.892 95.247 233.089 94.3672 233.439C93.7541 233.683 92.8961 233.538 92.2461 233.538ZM120.781 232.874V231.281C121.453 231.281 122.726 231.049 123.222 231.615C124.257 232.794 121.294 232.874 120.781 232.874ZM145.866 236.457V236.723C144.494 237.049 143.287 236.71 142.017 236.192C141.82 236.636 141.407 237.392 141.579 237.888C141.782 238.473 142.954 238.635 143.477 238.713C145.294 238.984 149.523 238.032 147.758 235.265C146.861 233.858 144.577 234.69 143.875 233.405L147.06 233.803C147.154 233.35 147.537 232.579 147.366 232.133C147.152 231.576 145.955 231.572 145.468 231.539C144.466 231.47 143.239 231.457 142.421 232.13C141.24 233.1 141.424 234.999 142.814 235.672C143.764 236.132 144.879 236.097 145.866 236.457ZM129.541 233.007H129.409V231.679L127.365 231.816L127.152 233.538V238.581H129.409C129.409 236.74 129.15 233.267 132.063 233.936V231.547C130.98 231.57 130.019 231.985 129.541 233.007ZM138.035 238.05V238.581H140.292V231.679H138.035V232.21C137.492 231.824 136.988 231.569 136.31 231.549C135.757 231.533 135.224 231.543 134.717 231.79C130.443 233.88 133.954 241.1 138.035 238.05ZM149.184 231.679V238.581H151.44V231.679H149.184ZM102.466 232.21L103.528 234.997H101.404L102.466 232.21ZM136.045 233.595C138.095 233.03 138.816 236.22 136.841 236.744C134.97 237.239 134.237 234.093 136.045 233.595ZM120.782 236.59V234.865C121.529 234.865 123.068 234.579 123.621 235.198C124.914 236.647 121.343 236.59 120.782 236.59Z" fill="#44C154"/>
</svg>
