<svg width="1440" height="140" viewBox="0 0 1440 140" fill="none" xmlns="http://www.w3.org/2000/svg">
  <g transform="scale(1, -1) translate(0, -140.0)">
<g clip-path="url(#clip0_158_13)">
<path d="M1440 112L1380 98C1320 84 1200 56 1080 60.7C960 65 840 103 720 102.7C600 103 480 65 360 60.7C240 56 120 84 0 91C-120 98 -240 84 -360 67.7C-480 51 -600 33 -720 39.7C-840 47 -960 79 -1080 95.7C-1200 112 -1320 112 -1440 116.7C-1560 121 -1680 131 -1800 128.3C-1920 126 -2040 112 -2160 105C-2280 98 -2400 98 -2520 93.3C-2640 89 -2760 79 -2880 70C-3000 61 -3120 51 -3240 63C-3360 75 -3480 107 -3600 102.7C-3720 98 -3840 56 -3960 35C-4080 14 -4200 14 -4320 28C-4440 42 -4560 70 -4680 81.7C-4800 93 -4920 89 -5040 91C-5160 93 -5280 103 -5400 93.3C-5520 84 -5640 56 -5760 53.7C-5880 51 -6000 75 -6120 72.3C-6240 70 -6360 42 -6480 37.3C-6600 33 -6720 51 -6840 72.3C-6960 93 -7080 117 -7140 128.3L-7200 140V0H-7140C-7080 0 -6960 0 -6840 0C-6720 0 -6600 0 -6480 0C-6360 0 -6240 0 -6120 0C-6000 0 -5880 0 -5760 0C-5640 0 -5520 0 -5400 0C-5280 0 -5160 0 -5040 0C-4920 0 -4800 0 -4680 0C-4560 0 -4440 0 -4320 0C-4200 0 -4080 0 -3960 0C-3840 0 -3720 0 -3600 0C-3480 0 -3360 0 -3240 0C-3120 0 -3000 0 -2880 0C-2760 0 -2640 0 -2520 0C-2400 0 -2280 0 -2160 0C-2040 0 -1920 0 -1800 0C-1680 0 -1560 0 -1440 0C-1320 0 -1200 0 -1080 0C-960 0 -840 0 -720 0C-600 0 -480 0 -360 0C-240 0 -120 0 0 0C120 0 240 0 360 0C480 0 600 0 720 0C840 0 960 0 1080 0C1200 0 1320 0 1380 0H1440V112Z" fill="url(#paint0_linear_158_13)"/>
</g>
<defs>
<linearGradient id="paint0_linear_158_13" x1="1440" y1="0" x2="1440" y2="140" gradientUnits="userSpaceOnUse">
<stop stop-color="#FFC545"/>
<stop offset="1" stop-color="#FFC545"/>
</linearGradient>
<clipPath id="clip0_158_13">
<rect width="1440" height="140" fill="white" transform="matrix(-1 0 0 -1 1440 140)"/>
</clipPath>
</defs>
  </g>
</svg>
