<svg width="56" height="63" viewBox="0 0 56 63" fill="none" xmlns="http://www.w3.org/2000/svg">
<g clip-path="url(#clip0_176_16)">
<path d="M46.8686 11.9479C41.7129 6.77988 34.8469 3.9375 27.5502 3.9375C12.4893 3.9375 0.233789 16.193 0.233789 31.2539C0.233789 36.065 1.48887 40.7654 3.87598 44.9121L0 59.0625L14.4826 55.2604C18.4693 57.4383 22.9605 58.5826 27.5379 58.5826H27.5502C42.5988 58.5826 55.125 46.3271 55.125 31.2662C55.125 23.9695 52.0242 17.1158 46.8686 11.9479ZM27.5502 53.9807C23.465 53.9807 19.466 52.8855 15.9838 50.8184L15.1594 50.3262L6.5707 52.5779L8.85938 44.1984L8.31797 43.3371C6.0416 39.7195 4.84805 35.5482 4.84805 31.2539C4.84805 18.74 15.0363 8.55176 27.5625 8.55176C33.6287 8.55176 39.3258 10.9143 43.6078 15.2086C47.8898 19.5029 50.523 25.2 50.5107 31.2662C50.5107 43.7924 40.0641 53.9807 27.5502 53.9807ZM40.0025 36.9756C39.3258 36.6311 35.9666 34.9822 35.3391 34.7607C34.7115 34.527 34.2563 34.4162 33.801 35.1053C33.3457 35.7943 32.0414 37.3201 31.6354 37.7877C31.2416 38.243 30.8355 38.3045 30.1588 37.96C26.1475 35.9543 23.5143 34.3793 20.8688 29.8389C20.1674 28.633 21.5701 28.7191 22.8744 26.1105C23.0959 25.6553 22.9852 25.2615 22.8129 24.917C22.6406 24.5725 21.2748 21.2133 20.7088 19.8475C20.1551 18.5186 19.5891 18.7031 19.1707 18.6785C18.777 18.6539 18.3217 18.6539 17.8664 18.6539C17.4111 18.6539 16.6729 18.8262 16.0453 19.5029C15.4178 20.192 13.6582 21.8408 13.6582 25.2C13.6582 28.5592 16.1068 31.8076 16.4391 32.2629C16.7836 32.7182 21.2502 39.6088 28.1039 42.5742C32.4352 44.4445 34.1332 44.6045 36.2988 44.2846C37.6154 44.0877 40.3348 42.6357 40.9008 41.0361C41.4668 39.4365 41.4668 38.0707 41.2945 37.7877C41.1346 37.4801 40.6793 37.3078 40.0025 36.9756Z" fill="black"/>
</g>
<defs>
<clipPath id="clip0_176_16">
<rect width="55.125" height="63" fill="white"/>
</clipPath>
</defs>
</svg>
