<svg width="53" height="53" viewBox="0 0 53 53" fill="none" xmlns="http://www.w3.org/2000/svg">
<path d="M50.58 12.8463C50.0003 10.393 48.2981 8.46758 46.1357 7.81543C42.2159 6.625 26.5 6.625 26.5 6.625C26.5 6.625 10.784 6.625 6.8642 7.81543C4.70187 8.46758 2.99962 10.393 2.41993 12.8463C1.37097 17.2871 1.37097 26.5414 1.37097 26.5414C1.37097 26.5414 1.37097 35.7957 2.41993 40.2365C2.99962 42.6898 4.70187 44.5324 6.8642 45.1846C10.784 46.375 26.5 46.375 26.5 46.375C26.5 46.375 42.2159 46.375 46.1357 45.1846C48.2981 44.5324 50.0003 42.6795 50.58 40.2365C51.629 35.7957 51.629 26.5414 51.629 26.5414C51.629 26.5414 51.629 17.2871 50.58 12.8463ZM21.3656 34.9469V18.1359L34.496 26.5414L21.3656 34.9469Z" fill="white"/>
</svg>
