<svg width="150" height="151" viewBox="0 0 150 151" fill="none" xmlns="http://www.w3.org/2000/svg">
<g filter="url(#filter0_d_77_5)">
<path d="M49.4783 108.394C51.9059 100.931 55.7908 94.5279 61.1922 88.8124C62.7316 87.1836 64.4415 85.5877 66.2783 84.2982C66.9076 83.8565 67.5593 83.454 68.2283 83.076C68.4925 82.9267 68.9479 82.8018 69.1263 82.5464C69.4835 82.0346 69.2033 80.5161 69.2033 79.8942C65.922 79.4773 62.958 78.1771 60.2783 76.2621C59.3103 75.5703 58.5031 74.4786 57.5033 73.8835C56.8836 73.5146 55.8115 73.5624 55.1033 73.3683C53.5493 72.9424 52.0817 72.2448 50.8283 71.223C47.0717 68.1606 45.3924 61.8253 46.6842 57.1692C47.2411 55.162 48.4021 53.6031 49.5533 51.9192C48.5793 51.9192 47.6694 51.8932 46.7783 51.4411C44.3475 50.2077 43.4511 47.3211 44.698 44.9442C45.3204 43.7575 46.5319 42.8625 47.8283 42.5618C48.314 42.4492 48.8318 42.4428 49.3283 42.4759C49.5299 42.4893 49.8286 42.597 49.9477 42.37C50.1294 42.0237 50.0942 41.4312 50.1594 41.0442C50.2997 40.2116 50.4992 39.3872 50.7064 38.5692C51.2565 36.3974 52.2055 34.2655 53.3487 32.3442C55.5264 28.684 58.6739 25.4966 62.3783 23.3762C63.4407 22.7682 64.5411 22.2227 65.6783 21.7692C66.2368 21.5464 67.0436 21.4207 67.5295 21.0733C67.8267 20.8609 67.652 20.3427 67.608 20.0442C67.5029 19.3312 67.1989 18.2333 67.8672 17.7044C68.6408 17.0922 70.2032 16.996 71.1533 16.8377C73.8575 16.3872 76.7078 16.3922 79.4033 16.9089C80.2448 17.0702 81.4491 17.166 82.1751 17.6438C82.9385 18.1461 82.6425 19.3008 82.533 20.0442C82.4951 20.3014 82.3019 20.8046 82.5239 21.0127C82.8313 21.301 83.5106 21.4045 83.9033 21.5481C84.7956 21.8745 85.6827 22.2551 86.5283 22.6886C89.1082 24.0111 91.4823 25.7895 93.4422 27.9221C97.1022 31.9048 99.7475 37.0849 100.178 42.5442C101.25 42.4596 102.25 42.4093 103.253 42.8808C106.266 44.296 106.937 48.3485 104.527 50.6374C103.424 51.6851 102.084 51.9192 100.628 51.9192C100.881 52.4632 101.373 52.9103 101.701 53.4192C102.377 54.4681 102.955 55.5991 103.326 56.7942C104.803 61.5403 103.194 68.2147 99.2033 71.3123C98.0514 72.2065 96.7191 72.9288 95.3033 73.3028C94.5558 73.5003 93.2653 73.4772 92.6352 73.8895C91.7378 74.4768 91.0075 75.4296 90.1283 76.0778C87.4625 78.0436 84.256 79.6292 80.9033 79.8942C80.9033 80.5425 80.6368 81.944 80.9804 82.4986C81.1652 82.7968 81.7284 82.9773 82.0283 83.1421C82.7285 83.5266 83.4034 83.9617 84.0533 84.4262C86.0328 85.8408 87.7585 87.6079 89.4522 89.3442C92.8522 92.8295 95.9074 97.1002 98.0195 101.494C99.0978 103.737 99.7024 106.136 100.703 108.394C101.881 108.021 103.068 107.143 104.078 106.446C105.646 105.366 107.194 104.331 108.653 103.102C115.16 97.622 120.394 91.1495 123.868 83.3442C132.709 63.478 128.606 39.0153 112.927 23.6471C106.58 17.4251 99.0171 13.0183 90.5783 10.3133C85.0734 8.54872 79.0266 7.79427 73.2533 8.0471C64.7605 8.41903 56.4036 10.6276 48.9533 14.7838C44.7017 17.1556 40.6002 20.1682 37.1998 23.6569C33.7857 27.1595 30.6612 31.1083 28.3209 35.4192C20.3073 50.1802 19.3929 67.8861 26.2388 83.2692C29.703 91.0536 34.8906 97.5328 41.3783 103.016C42.8608 104.269 44.4413 105.314 46.0283 106.423C47.0419 107.131 48.2812 108.049 49.4783 108.394ZM73.7033 18.351C72.6004 18.4958 71.492 18.5278 70.4033 18.7781C70.1247 18.8421 69.5347 18.8579 69.3565 19.1115C69.1837 19.3575 69.383 19.9174 69.4167 20.1942C69.5418 21.2222 69.7428 22.2372 69.8667 23.2692C70.3745 27.4992 71.0685 31.7338 71.7215 35.9442C71.9073 37.1423 72.0991 38.342 72.2572 39.5442C72.3374 40.1535 72.2678 40.8507 72.5164 41.4192C72.9612 42.4359 74.0937 43.0864 75.2033 42.9808C77.5123 42.7613 77.6558 41.1297 77.9349 39.2442C78.1643 37.6949 78.3701 36.1421 78.6102 34.5942C79.1986 30.7999 79.6538 26.9818 80.2848 23.1942C80.4532 22.1837 80.6481 21.1373 80.7477 20.1192C80.775 19.8402 80.9277 19.3561 80.7513 19.1077C80.4996 18.7536 79.434 18.7084 79.0283 18.6379C77.3439 18.3454 75.408 18.1272 73.7033 18.351ZM51.6533 45.0192H85.2533H94.6283H97.2533C97.565 45.0192 98.0692 45.1143 98.3545 44.9739C98.7309 44.7887 98.4573 43.5756 98.4531 43.2192C98.4301 41.2924 97.8914 39.1667 97.2215 37.3692C95.271 32.1354 91.7123 27.6435 86.8283 24.8554C85.43 24.0571 83.718 23.061 82.1033 22.8192C82.0453 24.1699 81.7007 25.5288 81.5245 26.8692C81.1228 29.924 80.6574 32.9742 80.1852 36.0192C79.9878 37.2917 79.8098 38.5681 79.6382 39.8442C79.5403 40.5716 79.5773 41.2436 79.2944 41.9442C78.1432 44.7945 74.3622 45.7202 72.0533 43.6561C70.3055 42.0936 70.4741 39.5904 70.158 37.4442C69.4416 32.5812 68.9133 27.6485 68.0033 22.8192C65.9223 23.3006 63.8423 24.4453 62.0783 25.6192C55.6046 29.9271 51.6533 37.2584 51.6533 45.0192ZM48.5033 44.2271C45.6473 44.6755 44.8274 48.7685 47.6783 49.9335C48.8365 50.4067 50.4944 50.1192 51.7283 50.1192H60.3533H90.1283H99.3533C100.714 50.1192 102.248 50.3791 103.327 49.3621C105.201 47.5957 103.97 44.281 101.378 44.1974C101.09 44.1881 100.529 44.1953 100.342 44.4577C99.8393 45.1625 100.623 46.5945 99.2033 46.7363C97.905 46.8659 96.5335 46.7442 95.2283 46.7442H87.4283H63.5783H54.9533C53.6423 46.7442 52.117 46.962 50.8283 46.727C49.5191 46.4883 50.2548 45.1291 49.7763 44.4577C49.5522 44.1433 48.8349 44.175 48.5033 44.2271ZM54.4283 51.8442C54.4283 53.8927 54.3971 55.956 54.5911 57.9942C54.742 59.5805 54.8446 61.1828 55.3073 62.7192C55.5146 63.4075 55.7858 64.0648 56.1792 64.6692C57.3916 66.5318 59.6498 67.2192 61.7783 67.2192C65.2182 67.2192 68.2233 66.1471 71.4533 65.0944C72.6372 64.7085 73.8807 64.4441 75.1283 64.4442C76.4289 64.4442 77.7232 64.7645 78.9533 65.1694C82.1415 66.219 85.0815 67.2194 88.4783 67.2192C90.6808 67.219 92.9458 66.4198 94.1025 64.4442C94.4887 63.7844 94.7529 63.0839 94.9378 62.3442C95.2576 61.0649 95.4928 59.6889 95.5272 58.3692C95.584 56.1935 95.6783 54.0281 95.6783 51.8442H93.9533C93.9533 53.7468 93.9265 55.6483 93.7966 57.5442C93.7003 58.9505 93.5552 60.3688 93.2293 61.7442C92.5019 64.8138 90.0486 65.5513 87.2033 65.4221C82.7759 65.2211 78.7717 62.2316 74.3033 62.6569C70.3727 63.031 66.887 65.2412 62.9033 65.4221C61.4063 65.4901 59.628 65.4488 58.4044 64.437C57.281 63.5079 56.9011 62.0003 56.6723 60.6192C56.1936 57.729 56.2283 54.7665 56.2283 51.8442H54.4283ZM51.5783 52.4442C47.7806 55.4585 47.5059 60.565 48.7502 64.8942C49.7144 68.2489 52.2826 71.3032 55.9283 71.7942C55.4354 70.6503 54.7912 69.6062 54.3792 68.4192C53.3382 65.4208 52.8497 62.1776 52.4131 59.0442C52.2059 57.5571 51.9825 56.042 51.8802 54.5442C51.8415 53.9773 51.9205 52.8958 51.5783 52.4442ZM98.4534 52.4442C98.1763 53.9364 98.1726 55.5086 97.9917 57.0192C97.382 62.1116 96.6078 67.2295 94.1783 71.7942C100.439 71.2829 103.132 62.9238 101.819 57.6942C101.37 55.9069 100.206 53.2782 98.4534 52.4442ZM63.9533 55.258C61.5134 55.7785 60.9982 59.1954 61.8767 61.1442C62.4145 62.3371 63.4795 63.2433 64.8533 62.9841C67.3553 62.5121 67.7154 58.8088 66.7831 56.9442C66.2576 55.8932 65.2053 54.9909 63.9533 55.258ZM85.3283 55.258C82.8792 55.7805 82.4303 59.2903 83.2961 61.2192C83.8164 62.3783 84.9829 63.2825 86.3033 62.9795C88.7311 62.4223 89.0892 58.9118 88.2299 57.0192C87.7305 55.9192 86.6004 54.9866 85.3283 55.258ZM71.5283 69.2923C70.0933 69.414 71.0061 71.063 71.4882 71.6439C72.4746 72.8325 74.0673 73.3982 75.5783 73.2874C76.9001 73.1904 78.2695 72.2849 78.9759 71.1942C79.3364 70.6375 79.6979 69.7394 78.8772 69.3684C77.9591 68.9534 77.62 70.0809 77.1395 70.5874C76.5417 71.2176 75.6183 71.5751 74.7533 71.4811C74.0054 71.3999 73.3016 70.9359 72.8278 70.3691C72.4525 69.9201 72.2404 69.2319 71.5283 69.2923ZM69.5783 84.3963C69.1037 84.4301 67.3615 85.3861 67.3552 85.9009C67.3434 86.8617 68.3236 88.1962 68.734 89.0442C69.837 91.3238 70.9645 93.5698 72.3102 95.7192C72.7193 96.3726 73.26 97.5738 73.9351 97.97C74.3718 98.2263 75.0947 98.1563 75.5783 98.1135C76.6386 98.0195 77.0912 96.8249 77.6283 96.0192C79.1436 93.746 80.3356 91.2727 81.5227 88.8192C81.8839 88.0727 82.2395 87.3325 82.5646 86.5692C82.6708 86.3197 82.8949 85.9547 82.7261 85.6917C82.4457 85.2549 81.0541 84.3913 80.5283 84.3983C80.0929 84.4041 79.5418 84.78 79.1033 84.8911C77.8144 85.2176 76.3897 85.5409 75.0533 85.5151C73.7844 85.4906 72.4567 85.2617 71.2283 84.9469C70.7448 84.823 70.0602 84.362 69.5783 84.3963ZM65.3783 87.2441C63.3174 88.9225 61.437 90.9555 59.7681 93.0191C59.1822 93.7436 58.317 94.5568 57.9487 95.4192C57.5594 96.3306 57.5351 97.7294 57.4167 98.7192C57.1418 101.017 56.9591 103.382 56.9022 105.694C56.8682 107.08 56.8414 108.51 56.7466 109.894C56.7155 110.348 56.4783 111.254 56.7554 111.657C57.0831 112.132 58.3955 112.327 58.9283 112.494C61.0046 113.142 63.2752 113.921 65.4533 114.094V95.1192V89.6442L65.3783 87.2441ZM84.6533 87.2441V114.094C86.8501 113.921 89.0808 113.13 91.1783 112.498C91.7133 112.337 93.0286 112.149 93.3513 111.663C93.5973 111.292 93.4283 110.403 93.4283 109.969C93.4283 108.423 93.3156 106.861 93.21 105.319C93.0438 102.892 92.9715 100.459 92.6237 98.0442C92.5127 97.2739 92.5193 96.2068 92.2393 95.4942C91.9936 94.8689 91.381 94.2922 90.9691 93.7692C89.929 92.4482 88.8265 91.206 87.6496 90.0064C86.769 89.1088 85.8164 87.7769 84.6533 87.2441ZM82.8533 90.0942C81.7611 92.7176 80.2392 95.3372 78.6223 97.6692C78.1297 98.3796 77.5546 99.677 76.7033 100.002C76.3627 100.132 76.0009 100.028 75.6533 100.001C74.9614 99.9462 73.8529 100.295 73.26 99.9082C72.4006 99.3467 71.834 98.1293 71.2783 97.2943C69.7921 95.0609 68.3618 92.6516 67.3283 90.1693H67.2533V108.094V112.669C67.2533 113.059 67.0773 114.026 67.3304 114.339C67.4949 114.542 67.9216 114.466 68.1533 114.502C68.9032 114.619 69.6447 114.73 70.4033 114.772C73.4525 114.942 76.5045 115.155 79.5533 114.791C80.3823 114.692 81.2021 114.61 82.0283 114.492C82.2628 114.458 82.6829 114.547 82.8513 114.339C83.0875 114.047 82.9283 113.181 82.9283 112.819V108.619V95.5693V91.8193C82.9283 91.298 83.0559 90.5769 82.8533 90.0942ZM55.5533 98.9443C53.4796 102.078 52.0748 105.695 51.0533 109.294C52.1671 109.944 53.6788 110.793 54.9533 111.019L55.2661 103.144L55.4851 100.294L55.5533 98.9443ZM94.5533 98.9443L95.2283 111.019L98.0783 109.811L98.9695 109.265L98.8775 108.544L98.2533 106.669L95.9977 101.419L94.5533 98.9443ZM37.4033 121.629C36.6032 121.769 35.8191 122.071 35.1533 122.538C34.5152 122.986 33.9388 123.546 33.5373 124.219C31.1317 128.252 34.6647 133.35 39.2783 132.538C40.0395 132.404 40.7401 132.1 41.3783 131.669C46.0975 128.482 43.0826 120.632 37.4033 121.629ZM51.7283 126.769C52.0655 126.417 52.4476 126.172 52.675 125.719C52.8373 125.396 52.9199 125.03 52.9272 124.669C52.9827 121.903 49.8606 121.819 47.8283 121.819H45.9533C45.7513 121.819 45.419 121.761 45.2486 121.896C44.9912 122.1 45.1283 122.874 45.1283 123.169V126.769V130.819C45.1283 131.172 44.9776 131.986 45.2054 132.274C45.4345 132.563 46.4389 132.394 46.7783 132.394C48.2791 132.394 50.0819 132.648 51.5033 132.079C53.5102 131.275 54.517 127.266 51.7283 126.769ZM58.3283 121.819V126.619C58.3283 127.442 58.4415 128.362 58.2669 129.169C57.9533 130.62 56.5 130.963 55.4783 129.994H55.4033C55.1396 130.337 54.3402 131.189 54.4194 131.641C54.4875 132.029 55.1593 132.269 55.4783 132.389C56.7006 132.852 58.2619 132.622 59.2272 131.712C60.022 130.963 60.1767 129.973 60.2998 128.944C60.5772 126.625 60.3533 124.156 60.3533 121.819H58.3283ZM68.4533 132.394V130.369H63.9533V128.119H67.7033V126.094H63.9533V123.844H68.4533V121.819H63.7283C63.3325 121.819 62.3684 121.643 62.0486 121.896C61.7149 122.161 61.9283 123.516 61.9283 123.919V130.069C61.9283 130.504 61.6934 132.036 62.0486 132.317C62.3684 132.57 63.3325 132.394 63.7283 132.394H68.4533ZM69.5783 123.844H72.3533V132.394H74.3783V123.844H77.1533V121.819H71.5283C71.146 121.819 69.9082 121.62 69.6554 121.939C69.3761 122.292 69.5783 123.403 69.5783 123.844ZM78.5033 121.819V132.394H80.5283V121.819H78.5033ZM81.4283 121.819C81.5892 122.753 82.1408 123.713 82.4933 124.594C83.2547 126.498 84.0421 128.391 84.8033 130.294C85.2499 131.411 85.4403 132.8 86.9702 132.37C87.2517 132.291 87.3371 131.959 87.4396 131.719C87.7037 131.1 87.9433 130.469 88.1933 129.844C88.9147 128.041 89.6619 126.248 90.3833 124.444C90.7267 123.586 91.1898 122.72 91.4033 121.819C90.8891 121.819 89.6233 121.587 89.2058 121.896C88.806 122.193 88.5983 123.237 88.4186 123.694C87.7697 125.346 86.8621 127.069 86.4533 128.794C85.5784 127.257 85.0851 125.411 84.4283 123.769C84.2406 123.3 84.035 122.2 83.6259 121.896C83.2084 121.587 81.9426 121.819 81.4283 121.819ZM91.3283 132.394C91.8075 132.394 93.2336 132.634 93.5727 132.274C93.9907 131.83 93.8914 130.678 94.4944 130.414C94.8159 130.274 95.3329 130.369 95.6783 130.369C96.5755 130.369 97.4818 130.331 98.378 130.371C99.2631 130.409 99.0605 131.779 99.5647 132.274C99.9336 132.636 101.327 132.394 101.828 132.394C101.088 129.687 99.6172 127.052 98.5734 124.444C98.3118 123.791 98.0258 123.147 97.7634 122.494C97.6686 122.258 97.5942 121.922 97.3184 121.843C96.9655 121.742 95.8521 121.687 95.609 121.993C94.8816 122.909 94.5093 124.555 94.0734 125.644C93.1961 127.835 91.8724 130.098 91.3283 132.394ZM37.7783 123.641C42.2638 123.057 43.2567 129.986 38.7533 130.572C38.2574 130.637 37.734 130.598 37.2533 130.463C33.7025 129.467 34.1531 124.113 37.7783 123.641ZM47.1533 125.869V123.844C48.0705 123.844 50.3048 123.455 50.8149 124.445C51.0808 124.962 50.7182 125.501 50.2283 125.689C49.3064 126.042 48.1215 125.869 47.1533 125.869ZM96.5783 124.669L98.0033 128.344H95.1533C95.4155 127.211 95.9348 125.638 96.5783 124.669ZM47.1533 130.369V127.594C48.2669 127.594 49.7276 127.363 50.7522 127.894C51.4344 128.248 51.6684 129.248 51.1077 129.819C50.2383 130.706 48.2723 130.369 47.1533 130.369ZM115.178 134.944C114.242 135.389 112.809 136.336 112.152 137.142C111.798 137.577 111.835 138.296 112.336 138.612C112.901 138.969 113.44 138.606 113.903 138.276C115.042 137.464 116.317 136.69 117.35 135.747C117.73 135.4 117.923 134.895 117.647 134.42C117.376 133.955 116.796 133.642 116.378 133.32C115.457 132.61 114.447 131.547 113.378 131.084C112.543 130.723 111.663 131.535 112.086 132.391C112.278 132.78 112.743 133.047 113.078 133.303C113.783 133.841 114.509 134.362 115.178 134.944ZM32.2283 133.669V135.619L101.753 135.694C101.803 135.299 102.062 134.026 101.708 133.746C101.465 133.553 100.848 133.669 100.553 133.669H97.5533H85.7033H32.2283ZM103.778 133.744C103.778 134.147 103.554 135.347 103.782 135.649C104.022 135.968 105.277 135.769 105.653 135.769L105.728 133.819L103.778 133.744ZM107.678 133.819L107.603 135.769L109.553 135.844C109.585 135.438 109.872 134.185 109.508 133.896C109.166 133.625 108.106 133.819 107.678 133.819ZM111.578 133.894C111.578 134.286 111.354 135.431 111.581 135.724C111.828 136.044 113.072 135.844 113.453 135.844L113.528 133.894H111.578ZM106.478 136.947C105.505 137.074 105.737 138.575 106.703 138.402C107.601 138.241 107.379 136.83 106.478 136.947ZM108.053 142.819H109.328V137.269L108.13 137.389L108.053 138.844V142.819ZM65.9032 141.094L65.3782 142.144C66.0838 142.579 66.7651 142.982 67.6282 142.965C68.8514 142.941 70.1802 142.016 69.6421 140.644C69.1834 139.475 67.8017 139.923 67.0408 139.256C66.6521 138.915 67.1539 138.635 67.4782 138.58C68.0673 138.481 68.5436 138.858 69.0532 139.069C69.1751 138.808 69.5166 138.411 69.442 138.108C69.3488 137.73 68.6958 137.597 68.3782 137.526C67.3976 137.306 66.0885 137.472 65.6749 138.544C65.1945 139.79 66.2485 140.502 67.3282 140.744C67.6284 140.812 68.6457 140.924 68.3804 141.461C67.9025 142.429 66.4293 141.362 65.9032 141.094ZM70.4032 137.569V142.819H71.6032V137.569H70.4032ZM72.5032 137.569V142.819H73.7782V141.094C74.4166 141.094 75.228 141.232 75.8032 140.904C76.8003 140.336 76.9739 138.626 76.0252 137.929C75.1294 137.271 73.5541 137.569 72.5032 137.569ZM76.7782 142.819H78.2032C78.2635 142.565 78.3337 142.219 78.5407 142.039C78.8153 141.801 80.1947 141.796 80.4968 141.996C80.7692 142.177 80.7008 142.628 81.0078 142.774C81.3318 142.928 81.899 142.819 82.2532 142.819C81.9568 141.568 81.2822 140.329 80.7851 139.144C80.6041 138.713 80.473 138.033 80.1477 137.689C79.9583 137.489 79.2823 137.509 79.0451 137.614C78.6773 137.778 78.5225 138.574 78.3743 138.919C77.8238 140.2 77.2273 141.5 76.7782 142.819ZM82.4032 137.569V138.694H83.8282V142.819H85.0282V138.694H86.4532V137.569H82.4032ZM88.6282 137.569V142.819C89.6876 142.819 91.3016 143.123 92.2279 142.521C93.1042 141.952 93.1653 140.469 92.0782 140.119V139.969C92.9325 139.531 92.7846 138.254 92.0032 137.825C91.0739 137.316 89.6526 137.569 88.6282 137.569ZM73.7782 139.969V138.694C74.1586 138.694 74.7044 138.596 75.0491 138.783C75.524 139.039 75.474 139.716 74.9769 139.913C74.6304 140.051 74.1456 139.969 73.7782 139.969ZM89.9032 139.594V138.694C90.2826 138.694 91.002 138.563 91.2826 138.883C91.8672 139.549 90.193 139.594 89.9032 139.594ZM104.078 141.619V141.769C103.303 141.954 102.621 141.762 101.903 141.469C101.792 141.72 101.558 142.148 101.655 142.427C101.77 142.758 102.433 142.85 102.728 142.894C103.755 143.047 106.145 142.509 105.148 140.945C104.641 140.151 103.35 140.62 102.953 139.894L104.753 140.119C104.806 139.863 105.023 139.428 104.926 139.176C104.805 138.861 104.128 138.859 103.853 138.84C103.287 138.801 102.594 138.794 102.132 139.174C101.464 139.722 101.568 140.795 102.354 141.175C102.89 141.435 103.52 141.415 104.078 141.619ZM94.8533 139.669H94.7783V138.919L93.6236 138.996L93.5033 139.969V142.819H94.7783C94.7783 141.779 94.6325 139.816 96.2783 140.194V138.844C95.6663 138.857 95.1234 139.092 94.8533 139.669ZM99.6533 142.519V142.819H100.928V138.919H99.6533V139.219C99.3464 139.001 99.0613 138.857 98.6783 138.845C98.3656 138.836 98.0646 138.842 97.7783 138.982C95.3626 140.163 97.3472 144.242 99.6533 142.519ZM105.953 138.919V142.819H107.228V138.919H105.953ZM79.5533 139.219L80.1533 140.794H78.9533L79.5533 139.219ZM98.5286 140.002C99.6869 139.682 100.094 141.485 98.9784 141.781C97.921 142.061 97.5068 140.283 98.5286 140.002ZM89.9033 141.694V140.719C90.3257 140.719 91.1956 140.558 91.508 140.908C92.2385 141.726 90.2207 141.694 89.9033 141.694Z" fill="white"/>
</g>
<defs>
<filter id="filter0_d_77_5" x="-4" y="0" width="158" height="158" filterUnits="userSpaceOnUse" color-interpolation-filters="sRGB">
<feFlood flood-opacity="0" result="BackgroundImageFix"/>
<feColorMatrix in="SourceAlpha" type="matrix" values="0 0 0 0 0 0 0 0 0 0 0 0 0 0 0 0 0 0 127 0" result="hardAlpha"/>
<feOffset dy="4"/>
<feGaussianBlur stdDeviation="2"/>
<feComposite in2="hardAlpha" operator="out"/>
<feColorMatrix type="matrix" values="0 0 0 0 0 0 0 0 0 0 0 0 0 0 0 0 0 0 0.25 0"/>
<feBlend mode="normal" in2="BackgroundImageFix" result="effect1_dropShadow_77_5"/>
<feBlend mode="normal" in="SourceGraphic" in2="effect1_dropShadow_77_5" result="shape"/>
</filter>
</defs>
</svg>
