<svg width="55" height="55" viewBox="0 0 55 55" fill="none" xmlns="http://www.w3.org/2000/svg">
<path d="M5.15625 6.875C2.30957 6.875 0 9.18457 0 12.0312C0 13.6533 0.762695 15.1787 2.0625 16.1562L25.4375 33.6875C26.6621 34.6006 28.3379 34.6006 29.5625 33.6875L52.9375 16.1562C54.2373 15.1787 55 13.6533 55 12.0312C55 9.18457 52.6904 6.875 49.8438 6.875H5.15625ZM0 18.9062V41.25C0 45.042 3.08301 48.125 6.875 48.125H48.125C51.917 48.125 55 45.042 55 41.25V18.9062L31.625 36.4375C29.1758 38.2744 25.8242 38.2744 23.375 36.4375L0 18.9062Z" fill="black"/>
</svg>
