<?xml version="1.0" encoding="UTF-8" standalone="no"?>
<!-- Created with Inkscape (http://www.inkscape.org/) -->

<svg
   width="529.16669mm"
   height="529.16669mm"
   viewBox="0 0 529.16669 529.16669"
   version="1.1"
   id="svg1"
   xml:space="preserve"
   inkscape:version="1.4 (86a8ad7, 2024-10-11)"
   sodipodi:docname="OBJETIVA SIPAT LOGO VECTOR.svg"
   xmlns:inkscape="http://www.inkscape.org/namespaces/inkscape"
   xmlns:sodipodi="http://sodipodi.sourceforge.net/DTD/sodipodi-0.dtd"
   xmlns="http://www.w3.org/2000/svg"
   xmlns:svg="http://www.w3.org/2000/svg"><sodipodi:namedview
     id="namedview1"
     pagecolor="#ffffff"
     bordercolor="#000000"
     borderopacity="0.25"
     inkscape:showpageshadow="2"
     inkscape:pageopacity="0.0"
     inkscape:pagecheckerboard="0"
     inkscape:deskcolor="#d1d1d1"
     inkscape:document-units="mm"
     inkscape:zoom="0.50835204"
     inkscape:cx="1155.6952"
     inkscape:cy="1191.1037"
     inkscape:window-width="1920"
     inkscape:window-height="1009"
     inkscape:window-x="-8"
     inkscape:window-y="-8"
     inkscape:window-maximized="1"
     inkscape:current-layer="layer1" /><defs
     id="defs1" /><g
     inkscape:label="Camada 1"
     inkscape:groupmode="layer"
     id="layer1"
     transform="translate(159.80835,86.518761)"><path
       style="fill:#ffffff;fill-opacity:1;stroke:none"
       d="m 14.740288,295.87182 c 8.56391,-26.32779 22.26889,-48.91717 41.3238,-69.07993 5.43061,-5.74635 11.4629,-11.37605 17.94287,-15.92522 2.21971,-1.55831 4.51889,-2.97831 6.87916,-4.31176 0.93202,-0.52651 2.53848,-0.96718 3.16766,-1.86839 1.26038,-1.80532 0.27193,-7.16226 0.27193,-9.35637 -11.57586,-1.47065 -22.03204,-6.0574 -31.48542,-12.81311 -3.41512,-2.44057 -6.26268,-6.2918 -9.78958,-8.39112 -2.18639,-1.30141 -5.96837,-1.13269 -8.46667,-1.81737 -5.48239,-1.50249 -10.6597,-3.96377 -15.08125,-7.5682 C 6.2500078,153.93674 0.3259078,131.5872 4.8833278,115.16139 c 1.96458,-7.08067 6.0602302,-12.58031 10.1215402,-18.520835 -3.43626,0 -6.6462502,-0.0914 -9.7895802,-1.686331 -8.57546,-4.351156 -11.73774,-14.534514 -7.33912,-22.919919 2.19588,-4.186179 6.46986,-7.343674 11.04328,-8.404397 1.7132902,-0.39736 3.5400702,-0.419742 5.2916702,-0.30318 0.71096,0.04732 1.76493,0.427494 2.18506,-0.373394 0.64093,-1.221792 0.5167,-3.312072 0.7468,-4.677363 0.49498,-2.93703 1.19872,-5.845477 1.92965,-8.731251 1.94053,-7.661419 5.28857,-15.182504 9.32127,-21.960417 7.68246,-12.912229 18.7864,-24.156731 31.85472,-31.6368948 3.74769,-2.1451214 7.62977,-4.0694224 11.64167,-5.6693574 1.97025,-0.7857078 4.81628,-1.2293168 6.53048,-2.4547588 1.04842,-0.749503 0.43198,-2.577298 0.27682,-3.630658 -0.3705,-2.515188 -1.44299,-6.388273 0.91461,-8.254147 2.729,-2.159784 8.24089,-2.499202 11.59267,-3.057598 9.539742,-1.589276 19.594822,-1.571545 29.104172,0.251309 2.96832,0.56899 7.21697,0.906954 9.77815,2.592348 2.69312,1.772244 1.64883,5.845639 1.26249,8.468088 -0.13372,0.907665 -0.81501,2.682847 -0.0321,3.416911 1.0845,1.016831 3.48096,1.382118 4.86644,1.888838 3.14767,1.1512218 6.27723,2.4940338 9.26042,4.0232688 9.10131,4.6654453 17.47655,10.9391583 24.39046,18.4626332 12.91165,14.050015 22.24364,32.324288 23.7637,51.583353 3.77946,-0.298303 7.30679,-0.475585 10.84792,1.187782 10.62791,4.992202 12.99407,19.288617 4.49404,27.363318 -3.89081,3.696125 -8.61966,4.521817 -13.75446,4.521817 0.88974,1.919328 2.62869,3.496495 3.78563,5.291665 2.38483,3.70042 4.42117,7.69036 5.73262,11.90626 5.20844,16.74326 -0.4676,40.28904 -14.54533,51.21667 -4.06383,3.15449 -8.76403,5.70272 -13.75833,7.02228 -2.63718,0.69676 -7.18968,0.61498 -9.4127,2.06971 -3.16577,2.07161 -5.74213,5.4329 -8.84355,7.71987 -9.40447,6.93482 -20.71628,12.52828 -32.54376,13.46314 0,2.28739 -0.94031,7.23127 0.27192,9.18774 0.65183,1.05201 2.6386,1.68895 3.69683,2.27018 2.47004,1.35667 4.8509,2.89162 7.14376,4.53018 6.98313,4.9904 13.07113,11.22438 19.04612,17.3494 11.99436,12.29553 22.77225,27.36167 30.22354,42.8625 3.80391,7.91321 5.93685,16.37594 9.46784,24.34167 4.15517,-1.31488 8.34096,-4.4153 11.90625,-6.87242 5.5308,-3.81169 10.99284,-7.46224 16.13958,-11.79686 22.95471,-19.33254 41.41937,-42.16613 53.6737,-69.70156 C 308.35992,137.41772 293.88347,51.118494 238.5739,-3.0969654 216.18098,-25.046918 189.50186,-40.592998 159.73194,-50.135633 c -19.42014,-6.225073 -40.75181,-8.886603 -61.118752,-7.994668 -29.961,1.312065 -59.44198,9.103289 -85.72501,23.765573 -14.9988202,8.367254 -29.46792,18.994965 -41.46404,31.302289 -12.04403,12.3564491 -23.06661,26.286963 -31.32271,41.494659 -28.27029,52.073697 -31.49594,114.53604 -7.34525,168.80418 12.22115,27.46169 30.52171,50.31883 53.40909,69.66384 5.2297199,4.42027 10.8054798,8.10661 16.4041598,12.01832 3.57548,2.4981 7.9474402,5.73427 12.1708402,6.95326 M 100.2007,-21.780483 c -3.891022,0.510854 -7.801212,0.62367 -11.641662,1.506626 -0.98285,0.225956 -3.06446,0.281734 -3.69293,1.176124 -0.60984,0.867873 0.0935,2.843269 0.21231,3.819534 0.44121,3.626782 1.15048,7.2074088 1.5875,10.8479168 1.7914,14.9226362 4.23975,29.8613572 6.54334,44.7145852 0.65551,4.226648 1.33218,8.459077 1.88985,12.700001 0.28269,2.149772 0.0372,4.609215 0.9144,6.614583 1.56903,3.586894 5.564372,5.881521 9.478862,5.50929 8.14547,-0.774566 8.65183,-6.530254 9.63646,-13.182207 0.809,-5.465525 1.53518,-10.943486 2.38209,-16.404167 2.07591,-13.385165 3.68175,-26.8547573 5.90778,-40.2166682 0.59386,-3.56477 1.28148,-7.2560168 1.63281,-10.8479168 0.0963,-0.984242 0.6353,-2.691955 0.0127,-3.568193 -0.88764,-1.249246 -4.64697,-1.408797 -6.07809,-1.657328 -5.94234,-1.031979 -12.77189,-1.801667 -18.78542,-1.01218 M 22.413208,72.298888 h 118.533332 33.07292 9.26041 c 1.09932,0 2.87812,0.335606 3.88465,-0.159648 1.32786,-0.653384 0.36261,-4.933032 0.34765,-6.190352 -0.0808,-6.797228 -1.98137,-14.296157 -4.3446,-20.637501 -6.88081,-18.463538 -19.43521,-34.309923 -36.66478,-44.1456279 -4.9332,-2.8161719 -10.97243,-6.3302983 -16.66875,-7.1835413 -0.20471,4.7650519 -1.42039,9.5589455 -2.04216,14.2875007 -1.41706,10.7769595 -3.05873,21.5371235 -4.72471,32.2791685 -0.69621,4.489099 -1.32414,8.992054 -1.92966,13.49375 -0.3452,2.566413 -0.21472,4.936779 -1.21291,7.408334 -4.06119,10.055459 -17.39968,13.321119 -25.544732,6.039489 -6.16598,-5.512357 -5.57112,-14.343117 -6.68644,-21.91449 -2.52711,-17.155252 -4.39109,-34.556807 -7.60106,-51.5937522 -7.34151,1.698346 -14.67909,5.73673033 -20.90208,9.8777891 -22.838,15.1974581 -36.77708,41.0606741 -36.77708,68.4388811 M 11.300698,69.504614 C 1.2251878,71.086688 -1.6673522,85.525859 8.3902878,89.635621 c 4.0857002,1.669504 9.9343202,0.654934 14.2875002,0.654934 h 30.42708 105.039592 32.54375 c 4.80006,0 10.213,0.917128 14.01904,-2.670541 6.61096,-6.231694 2.26598,-17.925037 -6.87529,-18.22011 -1.01609,-0.03278 -2.99698,-0.0073 -3.65679,0.918291 -1.77247,2.486508 0.99096,7.538267 -4.01613,8.038334 -4.58018,0.457433 -9.41848,0.02778 -14.02292,0.02778 H 148.61946 64.481958 34.054868 c -4.6252,0 -10.00604,0.768364 -14.55208,-0.06043 -4.61857,-0.842003 -2.02323,-5.637286 -3.71152,-8.005681 -0.79061,-1.109106 -3.32092,-0.997226 -4.49057,-0.813581 m 20.90209,26.871358 c 0,7.226755 -0.1102,14.505705 0.57408,21.695835 0.53259,5.59627 0.89439,11.2487 2.52681,16.66875 0.73135,2.42828 1.68806,4.747 3.07578,6.87917 4.27689,6.57117 12.24364,8.99583 19.7525,8.99583 12.13495,0 22.73646,-3.78181 34.13125,-7.4957 4.17623,-1.36115 8.563302,-2.29414 12.964582,-2.29388 4.58814,2.9e-4 9.15403,1.12997 13.49375,2.55866 11.24715,3.70271 21.61861,7.23166 33.60208,7.23092 7.76984,-4.8e-4 15.76031,-2.81982 19.84068,-9.78958 1.36265,-2.32757 2.29454,-4.79858 2.94698,-7.40834 1.1282,-4.51274 1.95776,-9.36712 2.0793,-14.02291 0.20034,-7.67534 0.53304,-15.31438 0.53304,-23.018755 h -6.08541 c 0,6.712125 -0.0948,13.420205 -0.55284,20.108335 -0.33981,4.96142 -0.85189,9.96483 -2.00153,14.81667 -2.56596,10.82918 -11.22076,13.43067 -21.25813,12.97498 -15.61914,-0.7091 -29.74506,-11.25532 -45.50834,-9.75506 -13.866612,1.31976 -26.163242,9.11705 -40.216662,9.75506 -5.2813,0.23978 -11.55477,0.0942 -15.87113,-3.4753 -3.96321,-3.27748 -5.30347,-8.59622 -6.11053,-13.46843 -1.6889,-10.19592 -1.56626,-20.6469 -1.56626,-30.956255 h -6.35 m -10.05417,2.116664 c -13.3977602,10.633981 -14.3667902,28.648451 -9.9772,43.920841 3.4015,11.83464 12.46163,22.60967 25.32304,24.34167 -1.73885,-4.03526 -4.01145,-7.71875 -5.46521,-11.90625 -3.67209,-10.57743 -5.39552,-22.01888 -6.93572,-33.07292 -0.73096,-5.24616 -1.51917,-10.59109 -1.88003,-15.875 -0.13658,-1.99982 0.14228,-5.81493 -1.06488,-7.408341 m 165.364592,0 c -0.97733,5.264181 -0.99054,10.810781 -1.62855,16.139591 -2.15097,17.96499 -4.88204,36.01976 -13.4527,52.12292 22.08457,-1.80361 31.5877,-31.29251 26.954,-49.74167 -1.58359,-6.30511 -5.68954,-15.57868 -11.87275,-18.520841 M 65.804868,108.4192 c -8.60768,1.83636 -10.42507,13.89034 -7.32586,20.76511 1.89725,4.20853 5.65431,7.4052 10.50086,6.49085 8.82637,-1.66517 10.09677,-14.7294 6.80771,-21.30752 -1.85381,-3.70762 -5.56605,-6.89069 -9.98271,-5.94844 m 75.406252,0 c -8.63985,1.8432 -10.2237,14.22501 -7.16926,21.02969 1.83558,4.08932 5.95051,7.27902 10.60885,6.20996 8.56446,-1.96548 9.82792,-14.34977 6.79648,-21.02662 -1.76168,-3.88023 -5.74839,-7.17043 -10.23607,-6.21303 m -48.683332,49.50997 c -5.06248,0.4292 -1.84234,6.24648 -0.14167,8.29578 3.47992,4.19325 9.098682,6.18902 14.429172,5.79796 4.66289,-0.3421 9.49373,-3.53664 11.98586,-7.38443 1.27186,-1.96371 2.54717,-5.13215 -0.34827,-6.44086 -3.23891,-1.46396 -4.43525,2.51351 -6.13014,4.30029 -2.1089,2.22322 -5.36655,3.48438 -8.41787,3.15297 -2.6386,-0.28657 -5.121572,-1.92339 -6.793012,-3.92301 -1.324,-1.58398 -2.07211,-4.01168 -4.58407,-3.7987 m -6.87917,53.28353 c -1.67441,0.11918 -7.82045,3.49172 -7.84277,5.30801 -0.0416,3.38924 3.41648,8.09706 4.86397,11.0886 3.89128,8.04215 7.86883,15.9655 12.61609,23.54792 1.44326,2.30522 3.3507,6.54288 5.732432,7.94057 1.54039,0.90398 4.09093,0.65726 5.79695,0.50607 3.74029,-0.33144 5.33704,-4.54565 7.23195,-7.3883 5.34545,-8.01902 9.55055,-16.7444 13.73854,-25.40001 1.27405,-2.63317 2.52846,-5.2447 3.67536,-7.9375 0.37481,-0.88005 1.16543,-2.1676 0.56979,-3.09558 -0.98905,-1.54089 -5.89841,-4.58735 -7.75314,-4.56264 -1.53605,0.0205 -3.48018,1.34659 -5.02709,1.73837 -4.5472,1.15173 -9.57312,2.29236 -14.2875,2.20141 -4.4764,-0.0864 -9.160372,-0.894 -13.493742,-2.0044 -1.70573,-0.43705 -4.12107,-2.0635 -5.82084,-1.94252 m -14.81666,10.04661 c -7.27038,5.9207 -13.90416,13.09275 -19.79169,20.37292 -2.06683,2.55572 -5.11931,5.42441 -6.4186,8.46667 -1.37324,3.21537 -1.45878,8.15012 -1.87658,11.64167 -0.97,8.10635 -1.61453,16.44783 -1.81493,24.60625 -0.12008,4.88927 -0.21449,9.93256 -0.54896,14.81666 -0.10968,1.60162 -0.94652,4.79874 0.031,6.21791 1.15597,1.67819 5.78571,2.36555 7.66557,2.95227 7.32445,2.28604 15.33483,5.03497 23.01875,5.64649 v -66.93958 -19.31459 l -0.26458,-8.46667 m 67.997912,0 v 94.72084 c 7.74956,-0.61246 15.61895,-3.40115 23.01875,-5.63034 1.8871,-0.56851 6.52716,-1.23348 7.66559,-2.94717 0.86813,-1.30677 0.27191,-4.44456 0.27191,-5.97457 0,-5.45484 -0.39758,-10.96587 -0.77007,-16.40417 -0.5865,-8.56279 -0.84139,-17.14727 -2.06867,-25.66458 -0.39152,-2.71718 -0.3683,-6.48178 -1.35599,-8.99584 -0.86659,-2.20581 -3.02789,-4.24031 -4.48077,-6.08541 -3.66935,-4.65999 -7.55884,-9.04222 -11.71069,-13.27407 -3.10659,-3.16647 -6.46705,-7.86521 -10.57006,-9.74469 m -6.35,10.05417 c -3.85312,9.25502 -9.22211,18.49632 -14.92609,26.72292 -1.73785,2.50644 -3.76673,7.08322 -6.76974,8.23025 -1.20179,0.45908 -2.47798,0.0911 -3.70417,-0.005 -2.44087,-0.19231 -6.35158,1.03979 -8.442992,-0.32647 -3.03194,-1.98063 -5.03083,-6.27552 -6.99103,-9.22121 -5.24304,-7.87891 -10.28875,-16.37826 -13.93473,-25.13542 h -0.26458 v 63.23542 16.13959 c 0,1.37633 -0.62099,4.7854 0.27193,5.88901 0.58039,0.71737 2.08553,0.44975 2.90307,0.57716 2.64532,0.41228 5.26123,0.80251 7.9375,0.95156 10.75672,0.59899 21.523642,1.35247 32.279162,0.0661 2.92428,-0.34976 5.81648,-0.63895 8.73125,-1.05446 0.82718,-0.11792 2.30923,0.19362 2.90309,-0.54041 0.83348,-1.03014 0.27191,-4.08292 0.27191,-5.35985 v -14.81666 -46.0375 -13.22917 c 0,-1.8391 0.45001,-4.38255 -0.26458,-6.08542 m -96.308332,31.22084 c -7.31553,11.05546 -12.27144,23.81379 -15.875,36.5125 3.92925,2.29337 9.26206,5.28643 13.75833,6.08541 l 1.10324,-27.78125 0.77252,-10.05416 0.24091,-4.7625 m 137.583332,0 2.38125,42.59791 10.05417,-4.26191 3.14377,-1.92679 -0.3244,-2.54255 -2.202,-6.61458 -7.9573,-18.52083 -5.09549,-8.73125 m -201.612502,80.02642 c -2.82288,0.49536 -5.58884,1.56076 -7.9375,3.20869 -2.25135,1.57965 -4.28445,3.55431 -5.70099,5.92903 -8.48645,14.22672 3.97718,32.20986 20.25307,29.3465 2.68521,-0.47239 5.15663,-1.54509 7.40834,-3.06577 16.6480298,-11.24324 6.0124099,-38.93412 -14.02292,-35.41845 m 50.53542,18.13356 c 1.18932,-1.24169 2.53742,-2.10504 3.33956,-3.70417 0.57257,-1.14147 0.86416,-2.43176 0.88969,-3.70417 0.19575,-9.75828 -10.81835,-10.05416 -17.9875902,-10.05416 h -6.61458 c -0.71265,6e-5 -1.88501,-0.20419 -2.48618,0.27194 -0.9082,0.71927 -0.42424,3.44876 -0.42424,4.49056 v 12.7 14.2875 c 0,1.24495 -0.53176,4.11725 0.27194,5.13202 0.80825,1.02048 4.35141,0.42423 5.5489,0.42423 5.2945102,0 11.6543302,0.89419 16.6687502,-1.11324 7.07991,-2.83433 10.63157,-16.97681 0.79375,-18.73051 m 23.28333,-17.4625 v 16.93333 c 0,2.90422 0.39915,6.14727 -0.21681,8.99583 -1.10641,5.11665 -6.23307,6.3274 -9.83735,2.91042 h -0.26459 c -0.9304,1.21042 -3.75059,4.21492 -3.47101,5.81021 0.24009,1.36991 2.61005,2.2132 3.7356,2.63911 4.31185,1.63162 9.81966,0.82159 13.22529,-2.38861 2.80362,-2.64273 3.34963,-6.13629 3.78358,-9.76488 0.97861,-8.1828 0.18904,-16.89063 0.18904,-25.13541 h -7.14375 m 35.71875,37.30625 v -7.14375 h -15.875 v -7.9375 h 13.22917 v -7.14375 h -13.22917 v -7.9375 h 15.875 v -7.14375 h -16.66875 c -1.39642,0 -4.79756,-0.62164 -5.92577,0.27194 -1.1772,0.93234 -0.42423,5.71283 -0.42423,7.13639 v 21.69583 c 0,1.53492 -0.82868,6.93782 0.42423,7.93014 1.12821,0.89358 4.52936,0.27195 5.92577,0.27195 h 16.66875 m 3.96875,-30.1625 h 9.78959 v 30.1625 h 7.143742 v -30.1625 h 9.78959 v -7.14375 H 92.527768 c -1.34883,0 -5.71546,-0.70174 -6.60723,0.42423 -0.98551,1.2443 -0.27194,5.16192 -0.27194,6.71952 m 31.485422,-7.14375 v 37.30625 h 7.14375 v -37.30625 h -7.14375 m 10.31875,0 c 0.5675,3.29576 2.51357,6.68105 3.75704,9.78958 2.68601,6.71477 5.46358,13.39334 8.14921,20.10833 1.57526,3.93868 2.24699,8.83877 7.64433,7.32423 0.99306,-0.27866 1.29414,-1.44952 1.65568,-2.29714 0.93186,-2.18466 1.77699,-4.40942 2.65911,-6.61459 2.54487,-6.36195 5.18079,-12.68769 7.72579,-19.05 1.21129,-3.02811 2.84521,-6.08173 3.59842,-9.26041 -1.8141,0 -6.27965,-0.82063 -7.75253,0.27194 -1.41031,1.04613 -2.14308,4.72901 -2.77712,6.34264 -2.28904,5.82561 -5.49088,11.90635 -6.93285,17.99167 -3.08673,-5.42396 -4.8269,-11.93413 -7.14375,-17.72709 -0.66243,-1.65632 -1.38754,-5.53668 -2.8308,-6.60722 -1.47288,-1.09257 -5.93843,-0.27194 -7.75253,-0.27194 m 34.925,37.30625 c 1.69027,0 6.72146,0.84591 7.9177,-0.42423 1.47465,-1.5657 1.12429,-5.6306 3.25135,-6.55988 1.1344,-0.49557 2.95816,-0.15964 4.17678,-0.15964 3.16493,0 6.36237,-0.13365 9.52397,0.005 3.12213,0.13701 2.40738,4.9703 4.18618,6.71442 1.30134,1.27598 6.21877,0.42423 7.98569,0.42423 -2.61154,-9.54907 -7.8003,-18.84737 -11.48283,-28.04584 -0.92284,-2.30515 -1.93179,-4.57524 -2.85754,-6.87916 -0.33422,-0.83177 -0.59671,-2.01797 -1.56974,-2.29715 -1.24505,-0.35721 -5.17259,-0.55184 -6.03051,0.52917 -2.5659,3.2332 -3.87919,9.03866 -5.41721,12.88048 -3.09474,7.73027 -7.76461,15.71302 -9.68384,23.8125 M -26.534732,349.65878 c 15.82374,-2.06137 19.3263399,22.38355 3.43958,24.45316 -1.74942,0.22789 -3.59594,0.0905 -5.29167,-0.38544 -12.52657,-3.51587 -10.93707,-22.40164 1.85209,-24.06772 m 33.0729098,7.86096 v -7.14375 c 3.2356,0 11.1176202,-1.37398 12.9172202,2.12073 0.93793,1.82143 -0.34121,3.72536 -2.0693,4.38727 -3.25224,1.24572 -7.4326202,0.63575 -10.8479202,0.63575 M 180.8986,353.2864 l 5.02709,12.96459 h -10.05417 c 0.92485,-3.99582 2.757,-9.54603 5.02708,-12.96459 M 6.5381778,373.39474 v -9.78959 c 3.9284302,0 9.0813802,-0.81571 12.6961302,1.05814 2.40641,1.24747 3.23183,4.77497 1.25411,6.79219 -3.06719,3.12846 -10.00264,1.93926 -13.9502402,1.93926 M 246.51527,389.53432 c -3.30154,1.56877 -8.35963,4.90917 -10.67622,7.75234 -1.25008,1.53424 -1.11676,4.07336 0.64983,5.18857 1.99219,1.25761 3.89537,-0.0228 5.52848,-1.18778 4.01674,-2.86533 8.5145,-5.59533 12.1592,-8.92213 1.34062,-1.22367 2.02262,-3.00282 1.04629,-4.67921 -0.95566,-1.64085 -3.00201,-2.74599 -4.47424,-3.88035 -3.2519,-2.50563 -6.8116,-6.25579 -10.58334,-7.8887 -2.94597,-1.2754 -6.05231,1.58922 -4.55915,4.61103 0.6777,1.37146 2.31866,2.31404 3.50082,3.21602 2.4868,1.89739 5.04879,3.73536 7.40833,5.79021 M -46.113882,385.0364 v 6.87917 l 245.268752,0.26458 c 0.17609,-1.39332 1.08802,-5.88365 -0.15964,-6.8718 -0.85906,-0.68038 -3.03409,-0.27195 -4.07369,-0.27195 H 184.33821 142.53404 -46.113882 m 252.412502,0.26459 c 0,1.42158 -0.79119,5.65421 0.0112,6.71952 0.84769,1.12544 5.27649,0.42423 6.60338,0.42423 l 0.26458,-6.87917 -6.87917,-0.26458 m 13.75834,0.26458 -0.26459,6.87917 6.87917,0.26458 c 0.11298,-1.43153 1.12448,-5.85478 -0.15965,-6.8718 -1.20716,-0.95611 -4.94705,-0.27195 -6.45493,-0.27195 m 13.75833,0.26458 c 0,1.38303 -0.79097,5.42109 0.008,6.45494 0.87197,1.12777 5.26189,0.42423 6.60622,0.42423 l 0.26458,-6.87917 h -6.87917 m -17.99147,10.77054 c -3.43419,0.44577 -2.61606,5.74083 0.79336,5.13163 3.16867,-0.56618 2.38303,-5.54392 -0.79336,-5.13163 m 5.55606,20.71488 h 4.49791 V 397.7364 l -4.226,0.42424 -0.27191,5.13201 v 14.02292 m -148.695842,-6.08542 -1.85208,3.70417 c 2.48907,1.53466 4.89254,2.95505 7.9375,2.89614 4.31509,-0.0835 9.00284,-3.34711 7.10455,-8.18781 -1.6181,-4.12623 -6.49267,-2.54319 -9.17692,-4.89828 -1.37122,-1.20302 0.39884,-2.18878 1.5432,-2.38225 2.07823,-0.35133 3.7584,0.97934 5.55625,1.72428 0.42977,-0.92055 1.63475,-2.3234 1.37151,-3.39058 -0.32897,-1.33364 -2.63238,-1.80212 -3.75276,-2.05317 -3.45933,-0.77518 -8.07757,-0.19237 -9.53684,3.59167 -1.69484,4.39495 2.02351,6.90694 5.83267,7.76151 1.05882,0.23755 4.6478,0.63407 3.71192,2.52866 -1.6861,3.41332 -6.88317,-0.34817 -8.739,-1.29434 m 15.875,-12.43541 v 18.52083 h 4.23333 v -18.52083 h -4.23333 m 7.40833,0 v 18.52083 h 4.497922 v -6.08542 c 2.25201,0 5.11459,0.48541 7.14354,-0.67024 3.51745,-2.00346 4.13003,-8.03597 0.78335,-10.49513 -3.16045,-2.3223 -8.717702,-1.27004 -12.424812,-1.27004 m 15.081252,18.52083 h 5.02708 c 0.21269,-0.89755 0.46025,-2.11573 1.19044,-2.75077 0.96886,-0.84261 5.83507,-0.86028 6.9008,-0.15228 0.96102,0.63843 0.71973,2.22842 1.80248,2.7434 1.14321,0.54377 3.14409,0.15965 4.39378,0.15965 -1.04583,-4.41359 -3.4255,-8.78486 -5.17936,-12.96458 -0.63853,-1.52171 -1.10094,-3.92024 -2.24857,-5.13202 -0.66821,-0.70555 -3.05289,-0.63575 -3.88972,-0.26458 -1.29731,0.57538 -1.84349,3.38658 -2.36636,4.60285 -1.9422,4.51784 -4.04627,9.10413 -5.63057,13.75833 m 19.84375,-18.52083 v 3.96875 h 5.02709 v 14.55208 h 4.23333 v -14.55208 h 5.02708 v -3.96875 h -14.2875 m 21.96042,0 v 18.52083 c 3.73727,0 9.43092,1.0718 12.69897,-1.05039 3.09125,-2.00737 3.30696,-7.23961 -0.52814,-8.47461 v -0.52917 c 3.01368,-1.54447 2.49184,-6.05105 -0.26477,-7.56245 -3.27823,-1.79744 -8.29226,-0.90421 -11.90606,-0.90421 m -52.3875,8.46666 v -4.49791 c 1.34195,0 3.26748,-0.34546 4.48341,0.31193 1.67543,0.90589 1.49891,3.29279 -0.25497,3.98958 -1.22217,0.48557 -2.93264,0.1964 -4.22844,0.1964 m 56.88542,-1.32291 v -3.175 c 1.33842,0 3.87618,-0.46322 4.8662,0.66514 2.06218,2.35031 -3.84398,2.50973 -4.8662,2.50986 m 50.00625,7.14375 v 0.52916 c -2.73417,0.65097 -5.1419,-0.0255 -7.67292,-1.05833 -0.39271,0.88596 -1.21637,2.39314 -0.87398,3.38019 0.40498,1.16743 2.7415,1.49022 3.7844,1.64586 3.62252,0.54063 12.05233,-1.35867 8.53485,-6.87406 -1.78817,-2.8038 -6.34242,-1.1469 -7.7411,-3.70824 l 6.35,0.79375 c 0.18703,-0.90372 0.95081,-2.43922 0.60939,-3.32874 -0.42652,-1.11117 -2.81378,-1.11856 -3.78439,-1.1851 -1.99646,-0.13684 -4.4425,-0.16229 -6.07379,1.17858 -2.35344,1.93444 -1.98703,5.71977 0.78315,7.06087 1.89391,0.91687 4.11639,0.8475 6.08439,1.56606 m -32.54337,-6.87917 h -0.26459 v -2.64583 l -4.07368,0.27195 -0.42423,3.43221 v 10.05417 h 4.49791 c 0,-3.67022 -0.5144,-10.59402 5.29167,-9.26042 v -4.7625 c -2.15911,0.046 -4.07446,0.87353 -5.02708,2.91042 m 16.93333,10.05417 v 1.05833 h 4.49792 v -13.75833 h -4.49792 v 1.05833 c -1.08291,-0.77024 -2.0886,-1.27922 -3.43958,-1.31885 -1.10329,-0.0323 -2.16508,-0.0121 -3.175,0.48163 -8.52209,4.16635 -1.52091,18.55807 6.61458,12.47889 m 22.225,-12.7 v 13.75833 h 4.49792 v -13.75833 h -4.49792 m -93.13334,1.05833 2.11667,5.55625 h -4.23333 l 2.11666,-5.55625 m 66.94062,2.76056 c 4.08625,-1.12616 5.5227,5.23343 1.58647,6.27652 -3.72997,0.98841 -5.19112,-5.28308 -1.58647,-6.27652 m -30.42811,5.97069 v -3.43958 c 1.49015,0 4.55863,-0.57012 5.66099,0.66514 2.57697,2.88765 -4.54139,2.77444 -5.66099,2.77444 z"
       id="path1" /></g></svg>
