<svg width="1923" height="314" viewBox="0 0 1923 314" fill="none" xmlns="http://www.w3.org/2000/svg">
<path d="M1.33571 167.632L65.5324 134.524C129.729 101.415 258.123 35.1989 386.235 13.6332C514.345 -7.57032 642.181 14.9712 769.94 49.5585C897.703 83.6024 1025.39 129.692 1153.43 118.995C1281.48 108.659 1409.87 42.4429 1538.02 15.3525C1666.17 -12.1003 1794.06 0.478606 1921.79 40.0472C2049.52 79.9781 2177.07 147.804 2304.79 187.735C2432.52 227.304 2560.42 239.883 2688.39 240.416C2816.36 241.493 2944.41 230.523 3072.34 237.215C3200.28 243.907 3328.11 266.449 3456.15 256.385C3584.19 246.322 3712.45 201.842 3840.67 163.883C3968.89 125.562 4097.07 92.8564 4225.08 88.046C4353.08 83.5978 4480.92 106.139 4608.71 135.202C4736.51 163.902 4864.27 198.218 4992.38 176.652C5120.49 155.449 5248.96 77.4581 5377.07 56.2546C5505.18 34.6888 5632.94 69.0044 5760.84 80.9493C5888.74 93.2565 6016.79 82.2874 6144.55 116.875C6272.31 150.919 6399.79 230.519 6527.65 247.807C6655.52 265.639 6783.78 221.16 6912.03 177.585C7040.28 134.011 7168.54 89.5314 7296.68 62.7127C7424.83 35.8939 7552.87 24.9247 7680.77 37.232C7808.67 49.1769 7936.43 83.4925 8064.23 112.193C8192.03 141.255 8319.86 163.797 8447.65 192.859C8575.45 221.56 8703.21 255.875 8831.22 251.065C8959.22 246.617 9087.48 202.137 9151.61 180.531L9215.73 158.563L9214.47 359.627L9150.48 359.224C9086.5 358.822 8958.52 358.017 8830.55 357.212C8702.58 356.407 8574.61 355.602 8446.64 354.798C8318.66 353.993 8190.69 353.188 8062.72 352.383C7934.75 351.578 7806.78 350.773 7678.81 349.968C7550.83 349.163 7422.86 348.358 7294.89 347.554C7166.92 346.749 7038.95 345.944 6910.97 345.139C6783 344.334 6655.03 343.529 6527.06 342.724C6399.09 341.919 6271.11 341.114 6143.14 340.31C6015.17 339.505 5887.2 338.7 5759.23 337.895C5631.25 337.09 5503.28 336.285 5375.31 335.48C5247.34 334.675 5119.37 333.87 4991.4 333.065C4863.42 332.261 4735.45 331.456 4607.48 330.651C4479.51 329.846 4351.54 329.041 4223.56 328.236C4095.59 327.431 3967.62 326.626 3839.65 325.821C3711.68 325.017 3583.7 324.212 3455.73 323.407C3327.76 322.602 3199.79 321.797 3071.82 320.992C2943.85 320.187 2815.87 319.382 2687.9 318.577C2559.93 317.773 2431.96 316.968 2303.99 316.163C2176.01 315.358 2048.04 314.553 1920.07 313.748C1792.1 312.943 1664.13 312.138 1536.16 311.333C1408.18 310.528 1280.21 309.724 1152.24 308.919C1024.27 308.114 896.296 307.309 768.324 306.504C640.352 305.699 512.38 304.894 384.408 304.089C256.436 303.284 128.465 302.48 64.4786 302.077L0.492632 301.675L1.33571 167.632Z" fill="url(#paint0_linear_447_52)"/>
<defs>
<linearGradient id="paint0_linear_447_52" x1="0.492632" y1="301.675" x2="2.48718" y2="-15.4438" gradientUnits="userSpaceOnUse">
<stop stop-color="#FFC545"/>
<stop offset="1" stop-color="#FFC545"/>
</linearGradient>
</defs>
</svg>
