<?xml version="1.0" encoding="UTF-8" standalone="no"?>
<!-- Created with Inkscape (http://www.inkscape.org/) -->

<svg
   version="1.1"
   id="svg1"
   width="128"
   height="50.880001"
   viewBox="0 0 128 50.880001"
   sodipodi:docname="wdf-agro-logo.svg"
   inkscape:version="1.3.2 (091e20e, 2023-11-25, custom)"
   xmlns:inkscape="http://www.inkscape.org/namespaces/inkscape"
   xmlns:sodipodi="http://sodipodi.sourceforge.net/DTD/sodipodi-0.dtd"
   xmlns="http://www.w3.org/2000/svg"
   xmlns:svg="http://www.w3.org/2000/svg">
  <defs
     id="defs1" />
  <sodipodi:namedview
     id="namedview1"
     pagecolor="#ffffff"
     bordercolor="#000000"
     borderopacity="0.25"
     inkscape:showpageshadow="2"
     inkscape:pageopacity="0.0"
     inkscape:pagecheckerboard="0"
     inkscape:deskcolor="#d1d1d1"
     inkscape:zoom="10.421875"
     inkscape:cx="64.047976"
     inkscape:cy="25.475262"
     inkscape:window-width="1920"
     inkscape:window-height="1017"
     inkscape:window-x="-8"
     inkscape:window-y="-8"
     inkscape:window-maximized="1"
     inkscape:current-layer="g1" />
  <g
     inkscape:groupmode="layer"
     inkscape:label="Image"
     id="g1">
    <g
       id="g2">
      <path
         style="fill:#fdca29"
         d="M 94.88,36.442817 C 88.59084,34.669142 83.014659,30.623277 80.880046,26.28498 c -0.956473,-1.943895 -1.039149,-2.358475 -1.028877,-5.159362 0.0093,-2.547412 0.132879,-3.281175 0.755206,-4.485618 2.367084,-4.581225 6.419142,-5.613535 8.374963,-2.133621 0.637427,1.134149 0.772815,1.953521 0.959519,5.807044 0.240248,4.958677 0.827681,7.693331 2.262267,10.531444 1.258867,2.490477 2.341535,3.871935 4.067068,5.189477 1.633778,1.247482 1.609789,1.25453 -1.390192,0.408473 z"
         id="path8" />
      <path
         style="fill:#a8ce46"
         d="m 95.84,48.192377 c -1.928929,-0.61004 -3.084862,-1.297975 -4.292821,-2.554806 -0.90272,-0.939242 -1.117729,-1.43738 -1.236003,-2.863614 -0.287342,-3.464973 1.35203,-4.414527 7.928824,-4.592518 7.45638,-0.201795 12.22485,-2.076371 15.37948,-6.045956 1.15763,-1.456682 1.18359,-0.961814 0.12043,2.295117 C 110.44932,44.511033 102.79856,50.393079 95.84,48.192377 Z"
         id="path7" />
      <path
         style="fill:#6baf8c"
         d="m 32,44.996321 c 0,-0.06802 0.424395,-0.185968 0.9431,-0.262098 0.518705,-0.07613 0.870207,-0.02047 0.781115,0.12368 C 33.56565,45.114466 32,45.240155 32,44.996321 Z m 7.44609,-0.09808 c 0.31135,-0.08113 0.74335,-0.0758 0.96,0.01186 0.216651,0.08766 -0.03809,0.154038 -0.56609,0.147516 -0.528,-0.0065 -0.705259,-0.07824 -0.39391,-0.159373 z m 8.453437,-0.0076 c 1.9748,-0.101188 2.319727,-0.206975 2.442576,-0.749125 0.113633,-0.501477 0.134295,-0.482227 0.100474,0.09361 -0.0401,0.682664 -0.182426,0.726315 -2.442577,0.749125 l -2.4,0.02422 z m 5.729042,-0.04439 c -0.09306,-0.150575 0.186441,-0.205788 0.621115,-0.122695 0.434674,0.08309 0.790316,0.206291 0.790316,0.273774 0,0.2476 -1.247565,0.114061 -1.411431,-0.151079 z M 59.6,44.899417 c 0.308,-0.08049 0.812,-0.08049 1.12,0 0.308,0.08049 0.056,0.146343 -0.56,0.146343 -0.616,0 -0.868,-0.06585 -0.56,-0.146343 z m 7.36,0 c 0.308,-0.08049 0.812,-0.08049 1.12,0 0.308,0.08049 0.056,0.146343 -0.56,0.146343 -0.616,0 -0.868,-0.06585 -0.56,-0.146343 z M 55.090526,43.840001 c 0,-0.44 0.07263,-0.62 0.161404,-0.4 0.08877,0.22 0.08877,0.58 0,0.8 -0.08877,0.22 -0.161404,0.04 -0.161404,-0.4 z m -11.743684,-0.34129 c -0.116011,-0.18771 -0.142299,-0.40992 -0.05842,-0.493801 0.08388,-0.08388 0.237781,0.0697 0.342001,0.34129 0.216378,0.563874 0.03195,0.663059 -0.283583,0.152511 z m 3.457558,0.111664 c 0.48642,-0.07355 1.20642,-0.07159 1.6,0.0044 0.39358,0.07596 -0.0044,0.136136 -0.8844,0.133733 -0.88,-0.0024 -1.20202,-0.06455 -0.7156,-0.138101 z m 7.006126,-1.050374 c 0,-0.44 0.07263,-0.62 0.161404,-0.4 0.08877,0.22 0.08877,0.58 0,0.8 -0.08877,0.22 -0.161404,0.04 -0.161404,-0.4 z m -4.825263,-0.186667 c 0.01535,-0.372782 0.09118,-0.448608 0.193333,-0.193333 0.09244,0.231 0.08107,0.507 -0.02526,0.613333 -0.106333,0.106334 -0.181965,-0.08267 -0.16807,-0.42 z m 20.955311,0.09287 c 0.12017,-0.315591 0.299101,-0.493191 0.397625,-0.394667 0.09852,0.09852 2.03e-4,0.356735 -0.218491,0.573801 -0.316037,0.313686 -0.352793,0.276929 -0.179134,-0.179134 z M 44.880699,41.440001 c 0.0036,-0.704 0.06908,-0.954321 0.145624,-0.556269 0.07654,0.398052 0.07364,0.974052 -0.0065,1.28 -0.08009,0.305948 -0.142719,-0.01973 -0.139167,-0.723731 z m 5.729827,0.16 c 0,-0.44 0.07263,-0.62 0.161404,-0.4 0.08877,0.22 0.08877,0.58 0,0.8 -0.08877,0.22 -0.161404,0.04 -0.161404,-0.4 z m 3.52,-1.6 c 0,-0.44 0.07263,-0.62 0.161404,-0.4 0.08877,0.22 0.08877,0.58 0,0.8 -0.08877,0.22 -0.161404,0.04 -0.161404,-0.4 z m 11.494737,0.133333 c 0.01535,-0.372782 0.09118,-0.448608 0.193333,-0.193333 0.09244,0.231 0.08107,0.507 -0.02526,0.613333 -0.106333,0.106334 -0.181965,-0.08267 -0.16807,-0.42 z M 47.92,40.088514 c 0.572,-0.07098 1.508,-0.07098 2.08,0 0.572,0.07098 0.104,0.129063 -1.04,0.129063 -1.144,0 -1.612,-0.05808 -1.04,-0.129063 z m 10.96,0.105723 c 0,-0.06917 0.223479,-0.21152 0.49662,-0.316334 0.284776,-0.109279 0.413223,-0.05563 0.301115,0.125763 C 59.489812,40.307731 58.88,40.453409 58.88,40.194237 Z m -3.149474,-1.154236 c 0,-0.44 0.07263,-0.62 0.161404,-0.4 0.08877,0.22 0.08877,0.58 0,0.8 -0.08877,0.22 -0.161404,0.04 -0.161404,-0.4 z m 4.134737,-0.186667 c 0.01535,-0.372782 0.09118,-0.448608 0.193333,-0.193333 0.09244,0.231 0.08107,0.507 -0.02526,0.613333 -0.106333,0.106333 -0.181965,-0.08267 -0.16807,-0.42 z M 119.44,38.179417 c 0.308,-0.08049 0.812,-0.08049 1.12,0 0.308,0.08049 0.056,0.146343 -0.56,0.146343 -0.616,0 -0.868,-0.06585 -0.56,-0.146343 z M 44.16,37.959183 c 0,-0.06645 0.252,-0.31845 0.56,-0.56 0.507538,-0.398039 0.518856,-0.38672 0.120818,0.120818 C 44.422779,38.05304 44.16,38.222554 44.16,37.959183 Z m 10.36855,-0.679182 c 0.02886,-0.587254 0.262288,-0.641636 2.832327,-0.659849 l 2.800878,-0.01985 -2.700215,0.112006 c -2.22667,0.09236 -2.723383,0.208082 -2.832327,0.659848 -0.09543,0.395719 -0.123381,0.370129 -0.100663,-0.09216 z m -5.72855,-0.48 -2.56,-0.202637 2.64,-0.05868 c 1.585788,-0.03525 2.64,0.0691 2.64,0.261319 0,0.176 -0.036,0.293593 -0.08,0.261318 -0.044,-0.03227 -1.232,-0.149868 -2.64,-0.261318 z M 36.88,36.579417 c 0.308,-0.08049 0.812,-0.08049 1.12,0 0.308,0.08049 0.056,0.146343 -0.56,0.146343 -0.616,0 -0.868,-0.06585 -0.56,-0.146343 z m 31.0444,-0.009 c 0.48642,-0.07355 1.20642,-0.07159 1.6,0.0044 0.39358,0.07596 -0.0044,0.136136 -0.8844,0.133733 -0.88,-0.0024 -1.20202,-0.06455 -0.7156,-0.138101 z m 47.94086,-2.837041 c 0.0154,-0.372782 0.0912,-0.448608 0.19334,-0.193333 0.0924,0.231 0.0811,0.507 -0.0253,0.613333 -0.10633,0.106333 -0.18196,-0.08267 -0.16807,-0.42 z m 9.92,-2.24 c 0.0154,-0.372782 0.0912,-0.448608 0.19334,-0.193333 0.0924,0.231 0.0811,0.507 -0.0253,0.613333 -0.10633,0.106333 -0.18196,-0.08267 -0.16807,-0.42 z m -106.239997,-0.32 c 0.01536,-0.372782 0.09118,-0.448608 0.193333,-0.193333 0.09244,0.231 0.08107,0.507 -0.02526,0.613333 -0.106333,0.106333 -0.181965,-0.08267 -0.16807,-0.42 z m 36.8,-0.32 c 0.01535,-0.372782 0.09118,-0.448608 0.193333,-0.193333 0.09244,0.231 0.08107,0.507 -0.02526,0.613333 -0.106333,0.106333 -0.181965,-0.08267 -0.16807,-0.42 z m 4.48,-0.32 c 0.01535,-0.372782 0.09118,-0.448608 0.193333,-0.193333 0.09244,0.231 0.08107,0.507 -0.02526,0.613333 -0.106333,0.106333 -0.181965,-0.08267 -0.16807,-0.42 z m -26.88,-0.64 c 0.01535,-0.372782 0.09118,-0.448608 0.193333,-0.193333 0.09244,0.231 0.08107,0.507 -0.02526,0.613333 -0.106333,0.106333 -0.181965,-0.08267 -0.16807,-0.42 z M 51.2,29.280001 c 0.413359,-0.44 0.823561,-0.8 0.911561,-0.8 0.088,0 -0.178202,0.36 -0.591561,0.8 -0.413359,0.44 -0.823561,0.8 -0.911561,0.8 -0.088,0 0.178202,-0.36 0.591561,-0.8 z m 5.465263,-0.986667 c 0.01535,-0.372782 0.09118,-0.448608 0.193333,-0.193333 0.09244,0.231 0.08107,0.507 -0.02526,0.613333 -0.106333,0.106333 -0.181965,-0.08267 -0.16807,-0.42 z M 45.06,28.261404 c 0.231,-0.09244 0.507,-0.08107 0.613333,0.02526 0.106334,0.106334 -0.08267,0.181965 -0.42,0.16807 -0.372781,-0.01535 -0.448607,-0.09118 -0.193333,-0.193333 z m 16.085263,-0.28807 c 0.01535,-0.372782 0.09118,-0.448608 0.193333,-0.193333 0.09244,0.231 0.08107,0.507 -0.02526,0.613333 -0.106333,0.106333 -0.181965,-0.08267 -0.16807,-0.42 z m -26.88,-0.32 c 0.01535,-0.372782 0.09118,-0.448608 0.193333,-0.193333 0.09244,0.231 0.08107,0.507 -0.02526,0.613333 -0.106333,0.106333 -0.181965,-0.08267 -0.16807,-0.42 z m 81.305267,-0.773333 c 0,-0.44 0.0726,-0.62 0.1614,-0.4 0.0888,0.22 0.0888,0.58 0,0.8 -0.0888,0.22 -0.1614,0.04 -0.1614,-0.4 z m -92.53053,0 c 0,-0.176 0.152498,-0.32 0.338885,-0.32 0.186387,0 0.249889,0.144 0.141115,0.32 -0.108774,0.176 -0.261272,0.32 -0.338885,0.32 -0.07761,0 -0.141115,-0.144 -0.141115,-0.32 z m 15.705263,-0.186667 c 0.01535,-0.372782 0.09118,-0.448608 0.193333,-0.193333 0.09244,0.231 0.08107,0.507 -0.02526,0.613333 -0.106333,0.106333 -0.181965,-0.08267 -0.16807,-0.42 z m 18.24,-0.96 c 0.01535,-0.372782 0.09118,-0.448608 0.193333,-0.193333 0.09244,0.231 0.08107,0.507 -0.02526,0.613333 -0.106333,0.106333 -0.181965,-0.08267 -0.16807,-0.42 z m -48.3199998,-0.32 c 0.015355,-0.372782 0.091181,-0.448608 0.1933333,-0.193333 0.092439,0.231 0.08107,0.507 -0.025263,0.613333 -0.1063333,0.106333 -0.1819649,-0.08267 -0.1680701,-0.42 z m 52.7999998,0 c 0.01535,-0.372782 0.09118,-0.448608 0.193333,-0.193333 0.09244,0.231 0.08107,0.507 -0.02526,0.613333 -0.106333,0.106333 -0.181965,-0.08267 -0.16807,-0.42 z m -26.88,-0.64 c 0.01535,-0.372782 0.09118,-0.448608 0.193333,-0.193333 0.09244,0.231 0.08107,0.507 -0.02526,0.613333 -0.106333,0.106333 -0.181965,-0.08267 -0.16807,-0.42 z m 4.48,-0.64 c 0.01535,-0.372782 0.09118,-0.448608 0.193333,-0.193333 0.09244,0.231 0.08107,0.507 -0.02526,0.613333 -0.106333,0.106333 -0.181965,-0.08267 -0.16807,-0.42 z m -20.8,-0.96 c 0.01535,-0.372782 0.09118,-0.448608 0.193333,-0.193334 0.09244,0.231 0.08107,0.507 -0.02526,0.613334 -0.106333,0.106333 -0.181965,-0.08267 -0.16807,-0.42 z m 39.04,0 c 0.01536,-0.372782 0.09118,-0.448608 0.193333,-0.193334 0.09244,0.231 0.08107,0.507 -0.02526,0.613334 -0.106333,0.106333 -0.181965,-0.08267 -0.16807,-0.42 z M 34.930526,22.4 c 0,-0.44 0.07263,-0.62 0.161404,-0.4 0.08877,0.22 0.08877,0.58 0,0.8 -0.08877,0.22 -0.161404,0.04 -0.161404,-0.4 z m 14.694737,0.133334 c 0.01536,-0.372782 0.09118,-0.448608 0.193333,-0.193334 0.09244,0.231 0.08107,0.507 -0.02526,0.613334 -0.106333,0.106333 -0.181965,-0.08267 -0.16807,-0.42 z m 24.96,-0.64 c 0.01535,-0.372782 0.09118,-0.448608 0.193333,-0.193334 0.09244,0.231 0.08107,0.507 -0.02526,0.613334 -0.106333,0.106333 -0.181965,-0.08267 -0.16807,-0.42 z m -35.2,-0.32 c 0.01535,-0.372782 0.09118,-0.448608 0.193333,-0.193334 0.09244,0.231 0.08107,0.507 -0.02526,0.613334 -0.106333,0.106333 -0.181965,-0.08267 -0.16807,-0.42 z M 122.6896,21.36 122.08,20.64 l 0.72,0.609596 c 0.67662,0.57287 0.86568,0.830404 0.6096,0.830404 -0.0607,0 -0.38473,-0.324 -0.72,-0.72 z M 57.625263,20.933334 c 0.01536,-0.372782 0.09118,-0.448608 0.193333,-0.193334 0.09244,0.231 0.08107,0.507 -0.02526,0.613334 -0.106333,0.106333 -0.181965,-0.08267 -0.16807,-0.42 z M 50.015893,19.2 c 0,-0.968 0.05999,-1.364 0.133308,-0.88 0.07332,0.484 0.07332,1.276 0,1.76 -0.07332,0.484 -0.133308,0.088 -0.133308,-0.88 z M 7.7052632,19.973334 C 7.720618,19.600552 7.7964441,19.524726 7.8985965,19.78 c 0.092439,0.231 0.08107,0.507 -0.025263,0.613334 -0.1063333,0.106333 -0.1819649,-0.08267 -0.1680701,-0.42 z M 54.811525,19.04 c 0.0024,-0.88 0.06455,-1.20202 0.138101,-0.7156 0.07355,0.48642 0.07159,1.20642 -0.0044,1.6 -0.07596,0.39358 -0.136136,-0.0044 -0.133733,-0.8844 z m -19.586262,0.613334 c 0.01535,-0.372782 0.09118,-0.448608 0.193333,-0.193334 0.09244,0.231 0.08107,0.507 -0.02526,0.613334 -0.106333,0.106333 -0.181965,-0.08267 -0.16807,-0.42 z M 91.2,19.84 c 0,-0.176 0.152498,-0.32 0.338885,-0.32 0.186387,0 0.249889,0.144 0.141115,0.32 -0.108774,0.176 -0.261272,0.32 -0.338885,0.32 C 91.263502,20.16 91.2,20.016 91.2,19.84 Z m 29.5696,-0.4 -0.6096,-0.72 0.72,0.609596 c 0.396,0.335278 0.72,0.659278 0.72,0.72 0,0.256081 -0.25753,0.06703 -0.8304,-0.609596 z M 17.625263,19.013334 c 0.01535,-0.372782 0.09118,-0.448608 0.193333,-0.193334 0.09244,0.231 0.08107,0.507 -0.02526,0.613334 -0.106333,0.106333 -0.181965,-0.08267 -0.16807,-0.42 z m 22.08,0 c 0.01535,-0.372782 0.09118,-0.448608 0.193333,-0.193334 0.09244,0.231 0.08107,0.507 -0.02526,0.613334 -0.106333,0.106333 -0.181965,-0.08267 -0.16807,-0.42 z m -32.3199998,-0.96 C 7.400618,17.680552 7.4764441,17.604726 7.5785965,17.86 c 0.092439,0.231 0.08107,0.507 -0.025263,0.613334 -0.1063333,0.106333 -0.1819649,-0.08267 -0.1680701,-0.42 z M 17.16428,17.12 c -0.101307,-0.264 -0.04471,-0.48 0.125763,-0.48 0.170476,0 0.309957,0.216 0.309957,0.48 0,0.264 -0.05659,0.48 -0.125764,0.48 -0.06917,0 -0.20865,-0.216 -0.309956,-0.48 z m 18.380983,-0.02667 c 0.01535,-0.372782 0.09118,-0.448608 0.193333,-0.193334 0.09244,0.231 0.08107,0.507 -0.02526,0.613334 -0.106333,0.106333 -0.181965,-0.08267 -0.16807,-0.42 z m 4.48,-0.64 c 0.01535,-0.372782 0.09118,-0.448608 0.193333,-0.193334 0.09244,0.231 0.08107,0.507 -0.02526,0.613334 -0.106333,0.106333 -0.181965,-0.08267 -0.16807,-0.42 z M 94.08,16.839183 c 0,-0.06645 0.252,-0.31845 0.56,-0.56 C 95.147538,15.881144 95.158856,15.892463 94.760818,16.4 94.342779,16.93304 94.08,17.102554 94.08,16.839183 Z M 110.5296,15.6 109.92,14.88 l 0.72,0.609596 c 0.396,0.335278 0.72,0.659278 0.72,0.72 0,0.256081 -0.25753,0.06703 -0.8304,-0.609596 z M 41.84,14.484083 c 0.924,-0.06464 2.436,-0.06464 3.36,0 0.924,0.06464 0.168,0.117529 -1.68,0.117529 -1.848,0 -2.604,-0.05289 -1.68,-0.117529 z m 29.507537,0.0014 c 2.659891,-0.07089 4.079705,-0.235997 4.264362,-0.495886 0.198681,-0.279628 0.239976,-0.254112 0.146288,0.09039 -0.107171,0.394082 -0.870474,0.482844 -4.264362,0.495886 L 67.36,14.591773 Z m 37.626133,-0.06338 c -0.2128,-0.344303 0.41353,-0.821583 0.70095,-0.534155 0.10563,0.105624 0.0155,0.192043 -0.20017,0.192043 -0.21572,0 -0.30322,0.144 -0.19445,0.32 0.10877,0.176 0.12577,0.32 0.0378,0.32 -0.088,0 -0.24285,-0.13405 -0.3441,-0.297888 z M 6.4252632,12.613334 C 6.440618,12.240552 6.5164441,12.164726 6.6185965,12.42 c 0.092439,0.231 0.08107,0.507 -0.025263,0.613334 -0.1063333,0.106333 -0.1819649,-0.08267 -0.1680701,-0.42 z M 103.92,12.58807 c 0.22,-0.08877 0.58,-0.08877 0.8,0 0.22,0.08877 0.04,0.161404 -0.4,0.161404 -0.44,0 -0.62,-0.07263 -0.4,-0.161404 z M 36.185263,11.973334 c 0.01535,-0.372782 0.09118,-0.448608 0.193333,-0.193334 0.09244,0.231 0.08107,0.507 -0.02526,0.613334 -0.106333,0.106333 -0.181965,-0.08267 -0.16807,-0.42 z m -15.68,-0.32 c 0.01535,-0.372782 0.09118,-0.448608 0.193333,-0.193334 0.09244,0.231 0.08107,0.507 -0.02526,0.613334 -0.106333,0.106333 -0.181965,-0.08267 -0.16807,-0.42 z m 55.36,0 c 0.01535,-0.372782 0.09118,-0.448608 0.193333,-0.193334 0.09244,0.231 0.08107,0.507 -0.02526,0.613334 -0.106333,0.106333 -0.181965,-0.08267 -0.16807,-0.42 z M 47.62,10.981404 c 0.231,-0.09244 0.507,-0.08107 0.613333,0.02526 0.106334,0.106333 -0.08267,0.181965 -0.42,0.16807 -0.372781,-0.01535 -0.448607,-0.09118 -0.193333,-0.193333 z m 19.02609,-0.0032 c 0.31135,-0.08113 0.74335,-0.0758 0.96,0.01186 0.216651,0.08766 -0.03809,0.154038 -0.56609,0.147517 -0.528,-0.0065 -0.705259,-0.07824 -0.39391,-0.159374 z m 49.25629,-2.4982428 c 0.007,-0.528 0.0782,-0.7052594 0.15938,-0.3939098 0.0811,0.3113496 0.0758,0.7433496 -0.0119,0.96 -0.0877,0.2166504 -0.15404,-0.03809 -0.14752,-0.5660902 z m -9.09865,-6.4663236 c 0.39805,-0.076542 0.97405,-0.073636 1.28,0.00646 0.30595,0.080094 -0.0197,0.1427188 -0.72373,0.139167 -0.704,-0.00355 -0.95432,-0.069083 -0.55627,-0.1456248 z"
         id="path6" />
      <path
         style="fill:#4d8e6d"
         d="m 36.08,41.694166 c 0.396,-0.07627 1.044,-0.07627 1.44,0 0.396,0.07627 0.072,0.138678 -0.72,0.138678 -0.792,0 -1.116,-0.0624 -0.72,-0.138678 z m 86.8,-4.694983 c 0,-0.06645 0.252,-0.31845 0.56,-0.56 0.50754,-0.398039 0.51886,-0.38672 0.12082,0.120818 -0.41804,0.533039 -0.68082,0.702553 -0.68082,0.439182 z M 48.919182,15.44 C 48.521144,14.932463 48.532462,14.921144 49.04,15.319183 49.573039,15.737221 49.742553,16 49.479182,16 c -0.06645,0 -0.318449,-0.252 -0.56,-0.56 z M 3.84,11.2 1.44,10.995301 3.7411146,10.937651 C 5.0067276,10.905943 6.131226,11.024 6.24,11.2 6.348774,11.376 6.3932724,11.494057 6.3388854,11.46235 6.2844984,11.430642 5.16,11.312585 3.84,11.2 Z m 28.16,0 -2.08,-0.209536 2.16,-0.05523 c 1.263488,-0.03231 2.16,0.07759 2.16,0.264768 0,0.176 -0.036,0.295146 -0.08,0.264769 C 34.116,11.434391 33.144,11.315245 32,11.2 Z M 16.56,10.965695 c 0.748,-0.06737 1.972,-0.06737 2.72,0 0.748,0.06737 0.136,0.122493 -1.36,0.122493 -1.496,0 -2.108,-0.05512 -1.36,-0.122493 z m 22.56,-0.004 c 1.54,-0.05866 4.06,-0.05866 5.6,0 1.54,0.05866 0.28,0.106656 -2.8,0.106656 -3.08,0 -4.34,-0.048 -2.8,-0.106656 z m 30.72,9.66e-4 c 1.188,-0.06157 3.132,-0.06157 4.32,0 1.188,0.06157 0.216,0.111946 -2.16,0.111946 -2.376,0 -3.348,-0.05038 -2.16,-0.111946 z M 96.96,7.5591825 c 0,-0.06645 0.252,-0.3184498 0.56,-0.56 0.507538,-0.3980387 0.518856,-0.3867202 0.120818,0.1208176 C 97.222779,7.6530395 96.96,7.8225534 96.96,7.5591825 Z m 17.23918,-2.6791824 c -0.39804,-0.5075378 -0.38672,-0.5188563 0.12082,-0.1208177 0.308,0.2415503 0.56,0.4935503 0.56,0.56 0,0.263371 -0.26278,0.093857 -0.68082,-0.4391823 z"
         id="path5" />
      <path
         style="fill:#02a659"
         d="m 33.633282,42.320001 c 0.746961,-1.364 1.729047,-3.161925 2.182414,-3.99539 0.641609,-1.179525 1.001613,-1.516379 1.624304,-1.519853 0.749458,-0.0042 0.873394,0.248239 1.961701,3.995389 l 1.1617,3.999854 h -0.7217 c -0.54589,0 -0.768473,-0.233862 -0.913701,-0.96 -0.1897,-0.948501 -0.216913,-0.96 -2.271782,-0.96 -1.987217,0 -2.101878,0.04273 -2.576218,0.96 -0.305992,0.591724 -0.747399,0.96 -1.150632,0.96 -0.598378,0 -0.538316,-0.211606 0.703914,-2.48 z m 4.573183,-0.665739 c 0.165327,-0.267504 -0.588479,-3.502942 -0.885281,-3.799744 -0.0876,-0.0876 -0.594034,0.701966 -1.125402,1.754598 -0.531367,1.052633 -0.876796,2.003205 -0.767619,2.112382 0.295589,0.295589 2.588356,0.240103 2.778302,-0.06724 z m 6.051379,2.372395 c -0.795381,-0.685089 -0.89316,-0.975382 -0.856799,-2.543736 0.04654,-2.007591 0.842454,-3.663094 2.056472,-4.277486 0.430366,-0.2178 1.898483,-0.398122 3.262483,-0.400717 1.993208,-0.0038 2.48,0.0895 2.48,0.475283 0,0.381378 -0.46456,0.48 -2.261037,0.48 -1.243571,0 -2.524424,0.14096 -2.846341,0.313245 -1.268426,0.678841 -1.755975,4.288234 -0.707425,5.237159 0.364608,0.329966 1.135755,0.529596 2.045764,0.529596 1.547829,0 1.849039,-0.290969 1.849039,-1.786172 0,-0.671042 -0.148768,-0.773828 -1.12,-0.773828 -0.782222,0 -1.12,-0.144762 -1.12,-0.48 0,-0.371691 0.420292,-0.48 1.86263,-0.48 h 1.862631 l -0.23927,1.68 c -0.131598,0.924 -0.249781,1.932 -0.26263,2.24 -0.02021,0.484379 -0.366649,0.56 -2.565517,0.56 -2.227254,0 -2.653373,-0.0958 -3.44,-0.773344 z m 9.512295,0.533344 c 0.0056,-0.132 0.217014,-1.752 0.469861,-3.6 0.252847,-1.848 0.464285,-3.54 0.469861,-3.76 0.0073,-0.289087 0.794961,-0.4 2.840543,-0.4 2.404755,0 2.915764,0.09432 3.398014,0.627202 0.835575,0.9233 0.420831,2.779515 -0.774298,3.465425 l -0.907123,0.520617 0.748892,1.693378 c 0.7344,1.660608 0.736454,1.693378 0.106107,1.693378 -0.463881,0 -0.837505,-0.443224 -1.342391,-1.592458 -0.676393,-1.539624 -0.743731,-1.592709 -2.029577,-1.6 l -1.329972,-0.0075 -0.220056,1.6 c -0.176519,1.283448 -0.340736,1.6 -0.830028,1.6 -0.335485,0 -0.605409,-0.108 -0.599833,-0.24 z m 6.211823,-5.298842 C 60.403718,38.05707 59.857657,37.73059 57.6,37.837026 l -1.76,0.08297 -0.100259,1.215795 -0.100258,1.215796 2.013821,-0.0958 c 1.88297,-0.08957 2.034278,-0.154199 2.328658,-0.994637 z m 5.075882,4.765987 c -0.782372,-0.673458 -0.895011,-0.992411 -0.875817,-2.48 0.04108,-3.183876 1.550704,-4.747145 4.584237,-4.747145 1.228884,0 1.805458,0.178649 2.495892,0.773343 0.793038,0.683071 0.893132,0.977646 0.857474,2.523539 -0.07132,3.091931 -1.684914,4.703118 -4.710147,4.703118 -1.07593,0 -1.687159,-0.200878 -2.351639,-0.772855 z m 4.672607,-0.955691 c 0.770167,-0.819805 1.196165,-2.844668 0.87102,-4.140149 -0.443558,-1.767276 -3.597257,-1.678538 -4.531194,0.127497 -0.628761,1.215889 -0.610335,3.635425 0.03258,4.278341 0.789609,0.789608 2.772639,0.644369 3.627594,-0.265689 z m 48.193929,-5.685182 c -1.41306,-1.111514 -1.78508,-2.49959 -2.07654,-7.748023 -0.39195,-7.05789 -1.88272,-11.011808 -5.36931,-14.240797 l -1.51444,-1.402547 1.11796,0.240692 c 0.61487,0.132381 2.05044,0.589304 3.19015,1.015383 5.38324,2.01252 9.47833,5.342846 11.43301,9.297875 1.07424,2.173574 1.18222,2.632636 1.17658,5.002175 -0.005,1.99964 -0.17319,2.982652 -0.72116,4.20897 -1.67427,3.746908 -4.97809,5.402539 -7.23625,3.626272 z"
         id="path4" />
      <path
         style="fill:#126c46"
         d="m 8.4,31.770799 c 0.484,-0.07332 1.276,-0.07332 1.76,0 0.484,0.07332 0.088,0.133309 -0.88,0.133309 -0.968,0 -1.364,-0.05999 -0.88,-0.133309 z m 12.965731,-0.0027 c 0.575152,-0.07122 1.439152,-0.06975 1.92,0.0033 0.480848,0.07302 0.01027,0.131287 -1.045731,0.129491 -1.056,-0.0018 -1.449421,-0.06154 -0.874269,-0.132756 z M 33.92,31.520001 c 0,-0.264 0.05659,-0.48 0.125764,-0.48 0.06917,0 0.20865,0.216 0.309956,0.48 0.101307,0.264 0.04471,0.48 -0.125763,0.48 -0.170476,0 -0.309957,-0.216 -0.309957,-0.48 z m 3.615712,0.241509 c 1.548642,-0.05879 3.996642,-0.05849 5.44,6.68e-4 1.443358,0.05916 0.176288,0.107253 -2.815712,0.106885 -2.992,-3.68e-4 -4.17293,-0.04877 -2.624288,-0.107553 z m 19.984288,0.007 c 0.572,-0.07098 1.508,-0.07098 2.08,0 0.572,0.07099 0.104,0.129063 -1.04,0.129063 -1.144,0 -1.612,-0.05808 -1.04,-0.129063 z m 3.305263,-2.51518 c 0.01535,-0.372782 0.09118,-0.448608 0.193333,-0.193333 0.09244,0.231 0.08107,0.507 -0.02526,0.613333 -0.106333,0.106333 -0.181965,-0.08267 -0.16807,-0.42 z m -26.24,-2.88 c 0.01535,-0.372782 0.09118,-0.448608 0.193333,-0.193333 0.09244,0.231 0.08107,0.507 -0.02526,0.613333 -0.106333,0.106333 -0.181965,-0.08267 -0.16807,-0.42 z m 22.72,-1.92 c 0.01536,-0.372782 0.09118,-0.448608 0.193333,-0.193333 0.09244,0.231 0.08107,0.507 -0.02526,0.613333 -0.106333,0.106333 -0.181965,-0.08267 -0.16807,-0.42 z m 4.16,-0.32 c 0.01535,-0.372782 0.09118,-0.448608 0.193333,-0.193333 0.09244,0.231 0.08107,0.507 -0.02526,0.613333 -0.106333,0.106333 -0.181965,-0.08267 -0.16807,-0.42 z m -21.76,-6.4 c 0.01535,-0.372782 0.09118,-0.448608 0.193333,-0.193334 0.09244,0.231 0.08107,0.507 -0.02526,0.613334 -0.106333,0.106333 -0.181965,-0.08267 -0.16807,-0.42 z M 52.45578,13.2 51.68,12.32 l 0.88,0.775781 c 0.484,0.426679 0.88,0.822679 0.88,0.88 0,0.250968 -0.259136,0.04671 -0.98422,-0.775781 z M 106.32,12.259416 c 0.308,-0.08049 0.812,-0.08049 1.12,0 0.308,0.08049 0.056,0.146343 -0.56,0.146343 -0.616,0 -0.868,-0.06585 -0.56,-0.146343 z m -8.4,-5.6602336 c 0,-0.06645 0.252,-0.3184497 0.56,-0.56 0.507538,-0.3980386 0.518856,-0.3867201 0.120818,0.1208177 C 98.182779,6.6930395 97.92,6.8625534 97.92,6.5991824 Z"
         id="path3" />
      <path
         style="fill:#00693d"
         d="M 5.7531047,30.09325 C 5.5635995,29.117963 5.130688,27.024001 4.7910792,25.440001 4.1509187,22.45417 1.92,11.463406 1.92,11.295444 1.92,11.24295 2.8532565,11.2 3.9939034,11.2 c 1.8911887,0 2.0876383,0.06343 2.2298029,0.72 0.1851715,0.855188 0.8645125,4.700028 1.7668902,10 0.8659117,5.085796 0.9520787,5.425513 1.290101,5.086287 C 9.5129791,26.773178 15.36,11.675485 15.36,11.308815 15.36,11.248967 16.512,11.2 17.92,11.2 c 1.408,0 2.56,0.11896 2.56,0.264355 0,0.674313 2.578061,15.540373 2.719534,15.681846 0.08826,0.08826 0.206308,0.100466 0.262336,0.02713 C 23.596512,26.997107 28.173011,15.75765 29.151553,13.2 l 0.765188,-2 2.035866,0 c 1.50055,0 1.993865,0.105177 1.876133,0.4 -0.08785,0.22 -1.558536,3.64 -3.268185,7.6 -1.709648,3.96 -3.611577,8.388001 -4.226508,9.840001 -0.614931,1.452 -1.211655,2.649926 -1.326052,2.662058 -0.114397,0.01213 -1.297316,0.04813 -2.628708,0.08 l -2.420712,0.05794 -0.376004,-2.4 C 18.102571,19.993285 17.452213,16.32 17.259665,16.32 c -0.122111,0 -0.373628,0.396 -0.558926,0.88 -0.185299,0.484 -1.360762,3.616 -2.612141,6.960001 -1.251379,3.344 -2.416579,6.44 -2.589333,6.88 -0.29767,0.758156 -0.447147,0.800693 -2.8578519,0.813249 l -2.5437534,0.01325 z M 34.302721,31.383465 C 34.2067,31.13237 34.287307,29.76437 34.481848,28.343464 34.676388,26.922559 35.237394,22.484 35.728526,18.48 l 0.892967,-7.28 h 5.791173 c 7.14113,0 8.483461,0.313035 10.327967,2.408505 1.909132,2.168888 2.343634,4.518452 1.620955,8.765283 -0.696569,4.093394 -2.709354,7.086927 -5.692983,8.466941 -1.293427,0.598247 -2.227398,0.698357 -7.829953,0.839272 -5.31949,0.133795 -6.38994,0.08523 -6.535931,-0.296536 z m 12.539987,-3.34726 c 2.164359,-0.904327 3.225336,-3.709341 3.23265,-8.546487 C 50.082156,14.993514 49.3383,14.4 43.696375,14.4 c -3.884768,0 -3.485543,-0.421378 -4.017087,4.24 -0.175608,1.54 -0.462968,4.06 -0.638576,5.600001 -0.175608,1.54 -0.394352,3.124 -0.486097,3.52 -0.16559,0.714739 -0.139803,0.72 3.529566,0.72 2.427733,0 4.060919,-0.152316 4.758527,-0.443796 z M 58.64,31.744731 c -2.337226,-0.111333 -2.220309,0.256095 -1.51943,-4.775043 1.556333,-11.171855 2.159531,-12.738346 5.64095,-14.649422 1.688037,-0.926624 1.819101,-0.945534 7.39848,-1.067483 6.341506,-0.138607 5.966549,-0.285526 5.48,2.147217 l -0.2,1 -4.290278,0 c -6.185228,0 -8.001368,0.933568 -8.87091,4.56 l -0.211005,0.88 H 68.465903 74.864 l -0.17308,1.04 c -0.456883,2.745308 0.311057,2.455913 -6.775322,2.55325 L 61.6,23.52 61.36,25.680001 c -0.132,1.188 -0.348,3.06 -0.48,4.16 l -0.24,2 z M 92.037398,17.987796 c 1.405585,-5.994948 6.086179,-12.5151676 10.474342,-14.5911018 3.39615,-1.6066349 7.48878,-1.3908323 10.34204,0.5453312 1.95279,1.3251194 2.70097,2.3859615 2.89262,4.1014191 0.12496,1.1185728 0.0117,1.5794374 -0.56892,2.3153335 -1.18594,1.503056 -2.55515,1.878648 -7.22973,1.98321 -2.55225,0.05709 -5.07441,0.306472 -6.4,0.632808 -2.957144,0.727999 -6.344784,2.534604 -8.190783,4.368088 -1.401175,1.391674 -1.506755,1.443274 -1.319569,0.644912 z"
         id="path2" />
    </g>
  </g>
</svg>
